<svg width="36" height="36" viewBox="0 0 36 36" fill="none" xmlns="http://www.w3.org/2000/svg">
<path d="M25.9196 16.7999C25.6346 16.7999 25.3496 16.6948 25.1246 16.4698C24.6896 16.0348 24.6896 15.3148 25.1246 14.8798L29.9096 10.0948L25.1246 5.3098C24.6896 4.8748 24.6896 4.1548 25.1246 3.7198C25.5596 3.2848 26.2796 3.2848 26.7146 3.7198L32.2946 9.29985C32.5046 9.50985 32.6246 9.79481 32.6246 10.0948C32.6246 10.3948 32.5046 10.6798 32.2946 10.8898L26.7146 16.4698C26.4896 16.6798 26.2046 16.7999 25.9196 16.7999Z" fill="black"/>
<path d="M31.5 11.2197H4.5C3.885 11.2197 3.375 10.7097 3.375 10.0947C3.375 9.47973 3.885 8.96973 4.5 8.96973H31.5C32.115 8.96973 32.625 9.47973 32.625 10.0947C32.625 10.7097 32.115 11.2197 31.5 11.2197Z" fill="black"/>
<path d="M10.08 32.625C9.79496 32.625 9.51 32.52 9.285 32.295L3.70496 26.715C3.49496 26.505 3.375 26.22 3.375 25.92C3.375 25.62 3.49496 25.335 3.70496 25.125L9.285 19.545C9.72 19.11 10.44 19.11 10.875 19.545C11.31 19.98 11.31 20.7 10.875 21.135L6.09 25.92L10.875 30.7049C11.31 31.1399 11.31 31.86 10.875 32.295C10.665 32.52 10.38 32.625 10.08 32.625Z" fill="black"/>
<path d="M31.5 27.0303H4.5C3.885 27.0303 3.375 26.5203 3.375 25.9053C3.375 25.2903 3.885 24.7803 4.5 24.7803H31.5C32.115 24.7803 32.625 25.2903 32.625 25.9053C32.625 26.5203 32.115 27.0303 31.5 27.0303Z" fill="black"/>
</svg>
