<svg width="22" height="22" viewBox="0 0 22 22" fill="none" xmlns="http://www.w3.org/2000/svg">
<path d="M10.1752 20.8542H6.32516C2.741 20.8542 1.146 19.2592 1.146 15.675V11.825C1.146 8.24087 2.741 6.64587 6.32516 6.64587H10.1752C13.7593 6.64587 15.3543 8.24087 15.3543 11.825V15.675C15.3543 19.2592 13.7593 20.8542 10.1752 20.8542ZM6.32516 8.02087C3.4835 8.02087 2.521 8.98337 2.521 11.825V15.675C2.521 18.5167 3.4835 19.4792 6.32516 19.4792H10.1752C13.0168 19.4792 13.9793 18.5167 13.9793 15.675V11.825C13.9793 8.98337 13.0168 8.02087 10.1752 8.02087H6.32516Z" fill="#005FCC"/>
<path d="M15.6752 15.3542H14.6668C14.291 15.3542 13.9793 15.0425 13.9793 14.6667V11.825C13.9793 8.98337 13.0168 8.02087 10.1752 8.02087H7.3335C6.95766 8.02087 6.646 7.70921 6.646 7.33337V6.32504C6.646 2.74087 8.241 1.14587 11.8252 1.14587H15.6752C19.2593 1.14587 20.8543 2.74087 20.8543 6.32504V10.175C20.8543 13.7592 19.2593 15.3542 15.6752 15.3542ZM15.3543 13.9792H15.6752C18.5168 13.9792 19.4793 13.0167 19.4793 10.175V6.32504C19.4793 3.48337 18.5168 2.52087 15.6752 2.52087H11.8252C8.9835 2.52087 8.021 3.48337 8.021 6.32504V6.64587H10.1752C13.7593 6.64587 15.3543 8.24087 15.3543 11.825V13.9792Z" fill="#005FCC"/>
</svg>
