<svg width="226" height="158" viewBox="0 0 226 158" fill="none" xmlns="http://www.w3.org/2000/svg">
<path d="M225.5 0H0.5V158H225.5V0Z" fill="#FFDFF8"/>
<path d="M0.5 111.561L111.643 47.2158L225.5 110.629V158H0.5V111.561Z" fill="#F9C9F0"/>
<path d="M113.521 125.682C111.809 125.682 110.077 125.608 108.364 125.465C94.8571 124.324 82.794 118.823 76.8818 111.115L76.647 110.808L82.1127 106.546L82.3475 106.853C87.7902 113.948 100.331 118.715 113.552 118.715C114.788 118.715 116.031 118.672 117.247 118.587C125.473 118.004 132.586 115.512 136.847 111.724L132.99 107.509L146.635 106.724L145.435 121.113L141.531 116.848C136.081 121.754 127.648 124.836 117.725 125.539C116.335 125.636 114.919 125.686 113.514 125.686" fill="#4C2639"/>
<path d="M97.4285 89.5407V83.9745L104.599 79.8018V85.368L97.4285 89.5407Z" fill="#ACA7A8"/>
<path d="M97.4285 83.9742L88.4639 78.7573V84.3235L97.4285 89.5404V83.9742Z" fill="#DFDFE0"/>
<path d="M97.4285 83.9744L104.811 79.6736L95.6348 74.3325L88.2522 78.6333L97.4285 83.9744Z" fill="#F6F8F6"/>
<path d="M97.4285 83.9741V85.3676L104.811 81.0668V79.6733L97.4285 83.9741Z" fill="#E9E9EA"/>
<path d="M97.4285 85.368L104.599 81.1914V81.4981L97.4285 85.6746V85.368Z" fill="#DFDFE0"/>
<path d="M88.2522 78.6333L97.4285 83.9744V85.3679L88.2522 80.0229V78.6333Z" fill="#DFDFE0"/>
<path d="M97.4285 85.3677L88.4639 80.147V80.4536L97.4285 85.6744V85.3677Z" fill="#D9D8D9"/>
<path d="M99.7879 84.8203L102.236 83.3957C102.34 83.3336 102.428 83.3841 102.428 83.5083V84.9678C102.428 85.092 102.344 85.2395 102.236 85.3016L99.7879 86.7261C99.684 86.7882 99.5955 86.7378 99.5955 86.6136V85.1541C99.5955 85.0299 99.6801 84.8824 99.7879 84.8203Z" fill="#E4E4E5"/>
<path d="M99.9456 84.9875L102.082 83.7454C102.151 83.7027 102.209 83.7376 102.209 83.8191V84.9137C102.209 84.9952 102.151 85.0962 102.082 85.135L99.9456 86.3771C99.8763 86.4159 99.8186 86.3848 99.8186 86.3033V85.2087C99.8186 85.1272 99.8763 85.0263 99.9456 84.9875Z" fill="#858081"/>
<path d="M97.4285 83.2755V77.7093L104.599 73.5327V79.0989L97.4285 83.2755Z" fill="#ACA7A8"/>
<path d="M97.4285 77.7095L88.4639 72.4888V78.055L97.4285 83.2757V77.7095Z" fill="#DFDFE0"/>
<path d="M97.4285 77.7092L104.811 73.4084L95.6348 68.0635L88.2522 72.3643L97.4285 77.7092Z" fill="#EEF0EE"/>
<path d="M97.4285 77.7095V79.0991L104.811 74.8022V73.4087L97.4285 77.7095Z" fill="#E9E9EA"/>
<path d="M97.4285 79.099L104.599 74.9263V75.2329L97.4285 79.4056V79.099Z" fill="#DFDFE0"/>
<path d="M88.2522 72.3643L97.4285 77.7092V79.0988L88.2522 73.7578V72.3643Z" fill="#DFDFE0"/>
<path d="M97.4285 79.0992L88.4639 73.8823V74.189L97.4285 79.4058V79.0992Z" fill="#D9D8D9"/>
<path d="M99.7879 78.5556L102.236 77.1311C102.34 77.069 102.428 77.1194 102.428 77.2436V78.7031C102.428 78.8273 102.344 78.9748 102.236 79.0369L99.7879 80.4615C99.684 80.5236 99.5955 80.4731 99.5955 80.3489V78.8894C99.5955 78.7652 99.6801 78.6177 99.7879 78.5556Z" fill="#E4E4E5"/>
<path d="M99.9456 78.7184L102.082 77.4763C102.151 77.4336 102.209 77.4686 102.209 77.5501V78.6447C102.209 78.7262 102.151 78.8271 102.082 78.8659L99.9456 80.108C99.8763 80.1507 99.8186 80.1158 99.8186 80.0343V78.9397C99.8186 78.8582 99.8763 78.7572 99.9456 78.7184Z" fill="#858081"/>
<path d="M104.211 79.3239L97.4284 83.2754L88.8526 78.2798L88.6409 78.404L97.4284 83.5044L104.422 79.4481L104.211 79.3239Z" fill="#D9D8D9"/>
<path d="M97.4284 83.5047L93.7256 81.3543V81.1175L97.4284 83.2757L104.211 79.3242L104.422 79.4484L97.4284 83.5047Z" fill="#D9D8D9"/>
<path d="M128.575 89.5407V83.9745L121.405 79.8018V85.368L128.575 89.5407Z" fill="#ACA7A8"/>
<path d="M128.575 83.9742L137.536 78.7573V84.3235L128.575 89.5404V83.9742Z" fill="#DFDFE0"/>
<path d="M128.575 83.9744L121.193 79.6736L130.365 74.3325L137.748 78.6333L128.575 83.9744Z" fill="#F6F8F6"/>
<path d="M128.575 83.9741V85.3676L121.193 81.0668V79.6733L128.575 83.9741Z" fill="#E9E9EA"/>
<path d="M128.575 85.368L121.405 81.1914V81.4981L128.575 85.6746V85.368Z" fill="#DFDFE0"/>
<path d="M137.748 78.6333L128.575 83.9744V85.3679L137.748 80.0229V78.6333Z" fill="#DFDFE0"/>
<path d="M128.575 85.3677L137.536 80.147V80.4536L128.575 85.6744V85.3677Z" fill="#D9D8D9"/>
<path d="M126.212 84.8203L123.764 83.3957C123.66 83.3336 123.572 83.3841 123.572 83.5083V84.9678C123.572 85.092 123.656 85.2395 123.764 85.3016L126.212 86.7261C126.316 86.7882 126.404 86.7378 126.404 86.6136V85.1541C126.404 85.0299 126.32 84.8824 126.212 84.8203Z" fill="#E4E4E5"/>
<path d="M126.058 84.9875L123.922 83.7454C123.853 83.7027 123.795 83.7376 123.795 83.8191V84.9137C123.795 84.9952 123.853 85.0962 123.922 85.135L126.058 86.3771C126.127 86.4159 126.185 86.3848 126.185 86.3033V85.2087C126.185 85.1272 126.127 85.0263 126.058 84.9875Z" fill="#858081"/>
<path d="M128.575 83.2755V77.7093L121.405 73.5327V79.0989L128.575 83.2755Z" fill="#ACA7A8"/>
<path d="M128.575 77.7095L137.536 72.4888V78.055L128.575 83.2757V77.7095Z" fill="#DFDFE0"/>
<path d="M128.575 77.7092L121.193 73.4084L130.365 68.0635L137.748 72.3643L128.575 77.7092Z" fill="#EEF0EE"/>
<path d="M128.575 77.7095V79.0991L121.193 74.8022V73.4087L128.575 77.7095Z" fill="#E9E9EA"/>
<path d="M128.575 79.099L121.405 74.9263V75.2329L128.575 79.4056V79.099Z" fill="#DFDFE0"/>
<path d="M137.748 72.3643L128.575 77.7092V79.0988L137.748 73.7578V72.3643Z" fill="#DFDFE0"/>
<path d="M128.575 79.0992L137.536 73.8823V74.189L128.575 79.4058V79.0992Z" fill="#D9D8D9"/>
<path d="M126.212 78.5556L123.764 77.1311C123.66 77.069 123.572 77.1194 123.572 77.2436V78.7031C123.572 78.8273 123.656 78.9748 123.764 79.0369L126.212 80.4615C126.316 80.5236 126.404 80.4731 126.404 80.3489V78.8894C126.404 78.7652 126.32 78.6177 126.212 78.5556Z" fill="#E4E4E5"/>
<path d="M126.058 78.7184L123.922 77.4763C123.853 77.4336 123.795 77.4686 123.795 77.5501V78.6447C123.795 78.7262 123.853 78.8271 123.922 78.8659L126.058 80.108C126.127 80.1507 126.185 80.1158 126.185 80.0343V78.9397C126.185 78.8582 126.127 78.7572 126.058 78.7184Z" fill="#858081"/>
<path d="M121.789 79.3239L128.575 83.2754L137.151 78.2798L137.359 78.404L128.575 83.5044L121.578 79.4481L121.789 79.3239Z" fill="#D9D8D9"/>
<mask id="mask0_343_284" style="mask-type:luminance" maskUnits="userSpaceOnUse" x="121" y="79" width="14" height="5">
<path d="M128.575 83.5047L121.578 79.4484L121.789 79.3242L128.575 83.2757L134.595 79.7667L134.588 79.8094L134.541 80.0384L128.575 83.5047Z" fill="white"/>
</mask>
<g mask="url(#mask0_343_284)">
<path d="M134.591 79.3242H121.578V83.5008H134.591V79.3242Z" fill="#D9D8D9"/>
</g>
<path d="M41.4778 112.084L50.0459 107.097V88.562L41.4778 93.5537V112.084Z" fill="#340D20"/>
<path d="M41.4777 93.5538L29.2336 86.4233V104.958L41.4777 112.085V93.5538Z" fill="#4C2639"/>
<path d="M29.2336 86.4234L41.4777 93.5539L50.0458 88.5621L37.8056 81.4355L29.2336 86.4234Z" fill="#63364C"/>
<path d="M40.477 102.952L30.6849 97.2495V104.112L30.4578 104.244L40.2538 109.946L40.477 109.818V102.952Z" fill="#340D20"/>
<path d="M40.2538 103.083L30.4578 97.3813V104.244L40.2538 109.946V103.083Z" fill="#63364C"/>
<path d="M36.4123 102.012L34.7456 101.041C34.5301 100.917 34.353 100.972 34.353 101.17C34.353 101.368 34.5301 101.628 34.7456 101.756L36.4123 102.726C36.6279 102.854 36.8049 102.796 36.8049 102.598C36.8049 102.4 36.6279 102.14 36.4123 102.012Z" fill="#340D20"/>
<path d="M40.477 94.664L30.6849 88.9619V95.8284L30.4578 95.9604L40.2538 101.662L40.477 101.53V94.664Z" fill="#340D20"/>
<path d="M40.2538 94.7963L30.4578 89.0942V95.9608L40.2538 101.663V94.7963Z" fill="#63364C"/>
<path d="M36.4123 93.7247L34.7456 92.7543C34.5301 92.6301 34.353 92.6845 34.353 92.8824C34.353 93.0804 34.5301 93.3405 34.7456 93.4686L36.4123 94.439C36.6279 94.5632 36.8049 94.5088 36.8049 94.3109C36.8049 94.1129 36.6279 93.8528 36.4123 93.7247Z" fill="#340D20"/>
<path d="M184.526 112.085L175.954 107.097V88.5625L184.526 93.5542V112.085Z" fill="#B2068A"/>
<path d="M184.526 112.085L179.511 109.166L182.694 92.4868L184.526 93.5543V112.085Z" fill="#AD068F"/>
<path d="M184.526 93.5538L196.766 86.4233V104.958L184.526 112.085V93.5538Z" fill="#B2068A"/>
<path d="M196.766 86.4234L184.526 93.5539L175.954 88.5621L188.198 81.4355L196.766 86.4234Z" fill="#B2068A"/>
<path d="M184.526 93.5539L182.694 92.4864L184.38 83.6558L188.198 81.4355L196.766 86.4234L184.526 93.5539Z" fill="#C14EA0"/>
<path d="M185.523 102.952L195.319 97.2495V104.112L195.542 104.244L185.75 109.946L185.523 109.818V102.952Z" fill="#B2068A"/>
<path d="M185.75 109.946L185.523 109.818V102.952L195.319 97.2495V97.5135L185.75 103.084V109.946Z" fill="#AF0089"/>
<path d="M185.75 103.083L195.542 97.3813V104.244L185.75 109.946V103.083Z" fill="#B2068A"/>
<path d="M185.75 109.946V103.079L195.546 97.3774V104.244L185.75 109.946ZM189.195 102.594C189.195 102.722 189.268 102.788 189.376 102.788C189.438 102.788 189.511 102.765 189.588 102.722L191.254 101.752C191.47 101.628 191.647 101.364 191.647 101.166C191.647 101.042 191.574 100.972 191.466 100.972C191.405 100.972 191.331 100.995 191.254 101.038L189.588 102.008C189.372 102.136 189.195 102.396 189.195 102.594Z" fill="#C14EA0"/>
<path d="M189.588 102.012L191.254 101.041C191.47 100.917 191.647 100.972 191.647 101.17C191.647 101.368 191.47 101.628 191.254 101.756L189.588 102.726C189.372 102.854 189.195 102.796 189.195 102.598C189.195 102.4 189.368 102.14 189.588 102.012Z" fill="#B2068A"/>
<path d="M189.376 102.792C189.268 102.792 189.195 102.722 189.195 102.598C189.195 102.4 189.368 102.14 189.588 102.012L191.254 101.042C191.331 100.995 191.404 100.976 191.466 100.976C191.574 100.976 191.647 101.045 191.647 101.17C191.647 101.368 191.47 101.628 191.254 101.756L189.588 102.726C189.511 102.773 189.438 102.792 189.376 102.792Z" fill="#AF0089"/>
<path d="M185.523 94.664L195.319 88.9619V95.8284L195.542 95.9604L185.75 101.662L185.523 101.53V94.664Z" fill="#B2068A"/>
<path d="M185.75 101.662L185.523 101.53V94.664L195.319 88.9619V89.2259L185.75 94.7959V101.662Z" fill="#AF0089"/>
<path d="M185.75 94.7963L195.542 89.0942V95.9608L185.75 101.663V94.7963Z" fill="#B2068A"/>
<path d="M185.75 101.663V94.8002L195.546 89.0981V95.9647L185.75 101.667M189.195 94.3111C189.195 94.4353 189.268 94.5052 189.376 94.5052C189.438 94.5052 189.511 94.4858 189.588 94.4392L191.254 93.4688C191.47 93.3446 191.647 93.0807 191.647 92.8827C191.647 92.7546 191.574 92.6886 191.466 92.6886C191.405 92.6886 191.331 92.708 191.254 92.7546L189.588 93.725C189.372 93.8492 189.195 94.1132 189.195 94.3111Z" fill="#C14EA0"/>
<path d="M189.588 93.7247L191.254 92.7543C191.47 92.6301 191.647 92.6845 191.647 92.8824C191.647 93.0804 191.47 93.3405 191.254 93.4686L189.588 94.439C189.372 94.5632 189.195 94.5088 189.195 94.3109C189.195 94.1129 189.368 93.8528 189.588 93.7247Z" fill="#B2068A"/>
<path d="M189.376 94.5051C189.268 94.5051 189.195 94.4352 189.195 94.311C189.195 94.113 189.368 93.853 189.588 93.7249L191.254 92.7545C191.331 92.7079 191.404 92.6885 191.466 92.6885C191.574 92.6885 191.647 92.7583 191.647 92.8826C191.647 93.0805 191.47 93.3406 191.254 93.4687L189.588 94.4391C189.511 94.4857 189.438 94.5051 189.376 94.5051Z" fill="#AF0089"/>
<path d="M134.01 88.1585L174.083 111.487L176.516 112.904C176.555 112.923 176.593 112.946 176.628 112.966C176.693 112.997 176.762 113.024 176.832 113.047C176.913 113.078 177.001 113.105 177.086 113.117C177.143 113.133 177.197 113.137 177.255 113.144H177.29C177.359 113.16 177.436 113.164 177.505 113.164C177.752 113.164 177.979 113.117 178.148 113.02C178.541 112.787 178.949 112.135 179.06 111.557L185.812 76.1838C185.827 76.1101 185.831 76.0286 185.831 75.9509C185.831 75.8888 185.831 75.8228 185.816 75.7607V75.753C185.8 75.6559 185.781 75.5589 185.75 75.4657C185.719 75.3687 185.677 75.2755 185.631 75.1902C185.604 75.1319 185.569 75.0776 185.531 75.0232C185.488 74.9611 185.442 74.9068 185.392 74.8525C185.35 74.802 185.3 74.7554 185.25 74.7166C185.2 74.6739 185.146 74.639 185.092 74.6079L142.586 49.8628C142.551 49.8395 142.513 49.8201 142.474 49.8007C142.436 49.7813 142.398 49.7619 142.355 49.7464L142.297 49.7269C142.244 49.7114 142.193 49.7037 142.143 49.7075C141.882 49.7269 141.655 49.9094 141.389 50.0646C140.885 50.3635 140.446 50.6236 140.446 50.6236C140.377 50.6546 140.311 50.7012 140.257 50.7633C140.184 50.841 140.123 50.9419 140.084 51.0583C140.069 51.1088 140.057 51.1592 140.046 51.2058L133.294 86.5826C133.187 87.161 133.506 87.8674 134.01 88.1624" fill="#B2068A"/>
<path d="M134.01 88.1585L174.083 111.487L176.516 112.904C176.555 112.923 176.593 112.946 176.628 112.966C176.693 112.997 176.762 113.024 176.832 113.047C176.913 113.078 177.001 113.105 177.086 113.117C177.143 113.133 177.197 113.137 177.255 113.144H177.29C177.359 113.16 177.436 113.164 177.505 113.164C177.752 113.164 177.979 113.117 178.148 113.02C178.541 112.787 178.949 112.135 179.06 111.557L185.812 76.1838C185.827 76.1101 185.831 76.0286 185.831 75.9509C185.831 75.8888 185.831 75.8228 185.816 75.7607V75.753C185.8 75.6559 185.781 75.5589 185.75 75.4657C185.719 75.3687 185.677 75.2755 185.631 75.1902C185.604 75.1319 185.569 75.0776 185.531 75.0232C185.488 74.9611 185.442 74.9068 185.392 74.8525C185.35 74.802 185.3 74.7554 185.25 74.7166C185.2 74.6739 185.146 74.639 185.092 74.6079L142.586 49.8628C142.551 49.8395 142.513 49.8201 142.474 49.8007C142.436 49.7813 142.398 49.7619 142.355 49.7464L142.297 49.7269C142.244 49.7114 142.193 49.7037 142.143 49.7075C141.882 49.7269 141.655 49.9094 141.389 50.0646C140.885 50.3635 140.446 50.6236 140.446 50.6236C140.377 50.6546 140.311 50.7012 140.257 50.7633C140.184 50.841 140.123 50.9419 140.084 51.0583C140.069 51.1088 140.057 51.1592 140.046 51.2058L133.294 86.5826C133.187 87.161 133.506 87.8674 134.01 88.1624" fill="#B2068A"/>
<path d="M176.628 112.962C177.124 113.203 177.775 113.234 178.144 113.02C178.537 112.787 178.945 112.135 179.056 111.557L185.808 76.1841C185.866 75.8619 185.792 75.4971 185.627 75.1865L184.199 76.0172C184.364 76.3277 184.438 76.6926 184.38 77.0148L177.628 112.392C177.525 112.923 177.093 113.164 176.628 112.962Z" fill="#340D20"/>
<path d="M141.393 50.0685C140.889 50.3674 140.45 50.6275 140.45 50.6275C140.654 50.5304 140.908 50.546 141.162 50.6935L183.664 75.4386C183.887 75.5667 184.068 75.7763 184.199 76.0169L185.627 75.1863C185.6 75.128 185.565 75.0737 185.527 75.0194C185.485 74.9573 185.438 74.9029 185.388 74.8486C185.3 74.7515 185.196 74.6661 185.088 74.604L142.582 49.8589C142.509 49.8162 142.432 49.7774 142.351 49.7464L142.294 49.7269C142.24 49.7114 142.19 49.7037 142.14 49.7075C141.878 49.7269 141.651 49.9094 141.385 50.0646" fill="#4C2639"/>
<path d="M184.199 76.0134C184.099 75.8232 183.964 75.6563 183.803 75.5321C183.76 75.4971 183.714 75.4661 183.668 75.4389L154.565 58.4958V56.8306L185.096 74.6082C185.204 74.6703 185.308 74.7557 185.396 74.8528C185.446 74.9071 185.492 74.9615 185.535 75.0236C185.569 75.0779 185.604 75.1322 185.635 75.1905L184.207 76.0211" fill="#582E43"/>
<path d="M177.629 112.391L184.38 77.0147C184.492 76.4364 184.168 75.7299 183.664 75.4349L141.162 50.6898C140.658 50.3948 140.157 50.6238 140.046 51.2022L133.294 86.5789C133.183 87.1573 133.502 87.8637 134.01 88.1587L176.512 112.904C177.017 113.199 177.517 112.97 177.625 112.391" fill="#B2068A"/>
<path d="M177.629 112.391L184.38 77.0147C184.492 76.4364 184.168 75.7299 183.664 75.4349L141.162 50.6898C140.658 50.3948 140.157 50.6238 140.046 51.2022L133.294 86.5789C133.183 87.1573 133.502 87.8637 134.01 88.1587L176.512 112.904C177.017 113.199 177.517 112.97 177.625 112.391" fill="#4C2639"/>
<path d="M176.947 113.032C176.809 113.032 176.662 112.989 176.512 112.904L134.01 88.1587C133.572 87.9025 133.275 87.3397 133.275 86.8156C133.275 86.7341 133.283 86.6565 133.298 86.5789L136.566 69.4494L146.836 75.4271L145.754 81.1019L144.896 85.5891C144.892 85.6085 144.888 85.6318 144.884 85.655C144.838 86.0587 145.065 86.5245 145.408 86.7264L175.985 104.527C176.008 104.539 176.031 104.551 176.05 104.562L176.066 104.57C176.112 104.593 176.162 104.613 176.212 104.628C176.27 104.652 176.335 104.671 176.393 104.679C176.435 104.69 176.474 104.694 176.516 104.698H176.543C176.593 104.71 176.647 104.71 176.697 104.71H176.712C176.882 104.71 177.04 104.675 177.155 104.609C177.44 104.442 177.732 103.972 177.809 103.557L182.667 78.1092C182.679 78.0549 182.682 77.9967 182.682 77.9423C182.682 77.8958 182.682 77.8492 182.671 77.8065C182.659 77.7327 182.644 77.659 182.621 77.593C182.598 77.5231 182.567 77.4571 182.536 77.395C182.517 77.3523 182.49 77.3135 182.467 77.2747C182.436 77.232 182.401 77.1893 182.367 77.1505C182.336 77.1155 182.301 77.0806 182.267 77.0534C182.24 77.0302 182.213 77.0107 182.186 76.9952C182.174 76.9875 182.167 76.9836 182.155 76.9758L154.561 60.9099V58.4917L183.664 75.4348C184.103 75.691 184.403 76.2538 184.403 76.7779C184.403 76.8438 184.399 76.9098 184.388 76.9758C184.388 76.9875 184.388 76.9991 184.38 77.0107L182.759 85.5075L177.628 112.388C177.582 112.632 177.467 112.815 177.309 112.919C177.205 112.989 177.082 113.028 176.947 113.028" fill="#3F192D"/>
<path d="M145.408 86.7301L174.234 103.514L175.985 104.535L176.066 104.578C176.112 104.601 176.162 104.62 176.212 104.636C176.27 104.659 176.335 104.679 176.393 104.686C176.435 104.698 176.474 104.702 176.516 104.706H176.543C176.593 104.717 176.647 104.717 176.697 104.717C176.874 104.717 177.036 104.682 177.159 104.616C177.444 104.449 177.736 103.98 177.813 103.564L182.671 78.1168C182.682 78.0625 182.686 78.0042 182.686 77.9499C182.686 77.9033 182.686 77.8567 182.675 77.8141C182.663 77.7403 182.648 77.6665 182.625 77.6006C182.602 77.5307 182.571 77.4647 182.54 77.4026C182.521 77.3599 182.494 77.3211 182.471 77.2823C182.44 77.2396 182.405 77.1969 182.371 77.1581C182.34 77.1231 182.305 77.0882 182.27 77.061C182.236 77.03 182.194 77.0067 182.155 76.9834L151.578 59.1824L151.497 59.1397L151.412 59.1009L151.374 59.0893C151.335 59.0776 151.297 59.0737 151.262 59.0776C151.073 59.0932 150.912 59.2251 150.719 59.3338C150.357 59.5473 150.042 59.7336 150.042 59.7336C149.992 59.7569 149.946 59.7918 149.903 59.8345C149.849 59.8889 149.807 59.9626 149.78 60.0441C149.769 60.0791 149.761 60.1179 149.753 60.1489L144.896 85.5966C144.819 86.012 145.046 86.5204 145.411 86.7339" fill="#B2068A"/>
<path d="M145.408 86.7301L174.234 103.514L175.985 104.535L176.066 104.578C176.112 104.601 176.162 104.62 176.212 104.636C176.27 104.659 176.335 104.679 176.393 104.686C176.435 104.698 176.474 104.702 176.516 104.706H176.543C176.593 104.717 176.647 104.717 176.697 104.717C176.874 104.717 177.036 104.682 177.159 104.616C177.444 104.449 177.736 103.98 177.813 103.564L182.671 78.1168C182.682 78.0625 182.686 78.0042 182.686 77.9499C182.686 77.9033 182.686 77.8567 182.675 77.8141C182.663 77.7403 182.648 77.6665 182.625 77.6006C182.602 77.5307 182.571 77.4647 182.54 77.4026C182.521 77.3599 182.494 77.3211 182.471 77.2823C182.44 77.2396 182.405 77.1969 182.371 77.1581C182.34 77.1231 182.305 77.0882 182.27 77.061C182.236 77.03 182.194 77.0067 182.155 76.9834L151.578 59.1824L151.497 59.1397L151.412 59.1009L151.374 59.0893C151.335 59.0776 151.297 59.0737 151.262 59.0776C151.073 59.0932 150.912 59.2251 150.719 59.3338C150.357 59.5473 150.042 59.7336 150.042 59.7336C149.992 59.7569 149.946 59.7918 149.903 59.8345C149.849 59.8889 149.807 59.9626 149.78 60.0441C149.769 60.0791 149.761 60.1179 149.753 60.1489L144.896 85.5966C144.819 86.012 145.046 86.5204 145.411 86.7339" fill="#B2068A"/>
<path d="M176.066 104.574C176.424 104.749 176.893 104.768 177.159 104.617C177.444 104.45 177.736 103.98 177.813 103.565L182.671 78.117C182.713 77.8841 182.659 77.6202 182.54 77.3989L181.512 77.9967C181.632 78.2179 181.686 78.4819 181.643 78.7148L176.786 104.166C176.713 104.551 176.401 104.721 176.066 104.578V104.574Z" fill="#D9D8D9"/>
<path d="M150.719 59.326C150.358 59.5395 150.042 59.7258 150.042 59.7258C150.188 59.6559 150.373 59.6676 150.554 59.7763L181.131 77.5772C181.289 77.6704 181.424 77.8179 181.516 77.9926L182.544 77.3948C182.525 77.3521 182.498 77.3133 182.475 77.2745C182.444 77.2318 182.409 77.1891 182.375 77.1502C182.313 77.0804 182.236 77.0183 182.159 76.9756L151.582 59.1746C151.528 59.1436 151.474 59.1164 151.416 59.0931L151.378 59.0815C151.339 59.0698 151.301 59.0659 151.266 59.0698C151.077 59.0853 150.916 59.2173 150.723 59.326" fill="#F6F8F6"/>
<path d="M176.786 104.162L181.643 78.7147C181.724 78.2993 181.493 77.7908 181.127 77.5812L150.55 59.7803C150.188 59.5707 149.826 59.7337 149.749 60.149L144.892 85.5967C144.811 86.012 145.042 86.5205 145.408 86.734L175.985 104.535C176.351 104.745 176.709 104.582 176.786 104.166" fill="#EEF0EE"/>
<path d="M154.168 79.2465C154.384 79.1223 154.557 78.804 154.557 78.5362V32.256C154.557 31.9882 154.372 31.6621 154.141 31.5301L125.319 14.75C125.088 14.6181 124.726 14.6103 124.515 14.7345C124.299 14.8587 124.126 15.177 124.126 15.4448V61.725C124.126 61.9928 124.311 62.3189 124.542 62.4509L153.364 79.2309C153.595 79.3668 153.953 79.3707 154.168 79.2465Z" fill="#E4E4E5"/>
<path d="M124.13 15.3672C124.164 15.1537 124.334 15.08 124.542 15.2003L153.364 31.9804C153.479 32.0464 153.587 32.1667 153.656 32.2948L154.438 31.8407C154.365 31.7087 154.257 31.5923 154.141 31.5263L125.323 14.7462C125.092 14.6103 124.73 14.6025 124.515 14.7268C124.322 14.8432 124.157 15.1149 124.126 15.3672H124.13Z" fill="#F6F8F6"/>
<path d="M153.421 79.2583C153.648 79.3631 153.972 79.3592 154.172 79.2428C154.388 79.1185 154.561 78.8003 154.561 78.5324V32.2523C154.561 32.1164 154.515 31.9728 154.441 31.8408L153.66 32.295C153.737 32.4269 153.783 32.5706 153.783 32.7064V78.9866C153.783 79.2311 153.625 79.3437 153.425 79.2583H153.421Z" fill="#D9D8D9"/>
<path d="M153.364 79.2309L124.542 62.4507C124.311 62.3188 124.126 61.9927 124.126 61.7249V15.4408C124.126 15.173 124.311 15.0643 124.542 15.2002L153.364 31.9803C153.595 32.1123 153.78 32.4383 153.78 32.7061V78.9863C153.78 79.2541 153.595 79.3628 153.364 79.227" fill="#EEF0EE"/>
<path d="M151.347 53.4146C151.235 53.4146 151.108 53.3758 150.966 53.2943L126.936 39.305C126.547 39.076 126.228 38.6063 126.228 38.2492C126.228 38.0202 126.358 37.896 126.555 37.896C126.666 37.896 126.797 37.9348 126.936 38.0163L150.966 52.0056C151.358 52.2346 151.674 52.7043 151.674 53.0614C151.674 53.2904 151.543 53.4146 151.347 53.4146Z" fill="#C2B4BB"/>
<path d="M151.347 57.2808C151.235 57.2808 151.108 57.242 150.966 57.1605L126.936 43.1712C126.547 42.9422 126.228 42.4725 126.228 42.1154C126.228 41.8864 126.358 41.7622 126.555 41.7622C126.666 41.7622 126.793 41.801 126.936 41.8825L150.966 55.8718C151.358 56.1008 151.674 56.5705 151.674 56.9276C151.674 57.1566 151.543 57.2808 151.347 57.2808Z" fill="#C2B4BB"/>
<path d="M151.347 61.1426C151.235 61.1426 151.108 61.1038 150.966 61.0223L126.936 47.033C126.547 46.804 126.228 46.3344 126.228 45.9772C126.228 45.7482 126.358 45.624 126.555 45.624C126.666 45.624 126.797 45.6628 126.936 45.7444L150.966 59.7336C151.358 59.9626 151.674 60.4323 151.674 60.7894C151.674 61.0184 151.543 61.1426 151.347 61.1426Z" fill="#C2B4BB"/>
<path d="M151.347 65.0088C151.235 65.0088 151.108 64.97 150.966 64.8885L126.936 50.8993C126.547 50.6702 126.228 50.2006 126.228 49.8435C126.228 49.6144 126.358 49.4902 126.555 49.4902C126.666 49.4902 126.793 49.529 126.936 49.6106L150.966 63.5998C151.358 63.8288 151.674 64.2985 151.674 64.6556C151.674 64.8846 151.543 65.0088 151.347 65.0088Z" fill="#C2B4BB"/>
<path d="M151.347 68.875C151.235 68.875 151.108 68.8362 150.966 68.7547L126.936 54.7655C126.547 54.5364 126.228 54.0668 126.228 53.7097C126.228 53.4807 126.358 53.3564 126.555 53.3564C126.666 53.3564 126.797 53.3953 126.936 53.4768L150.966 67.466C151.358 67.695 151.674 68.1647 151.674 68.5218C151.674 68.7508 151.543 68.875 151.347 68.875Z" fill="#C2B4BB"/>
<path d="M151.347 72.7368C151.235 72.7368 151.108 72.698 150.966 72.6165L126.936 58.6273C126.547 58.3983 126.228 57.9286 126.228 57.5715C126.228 57.3425 126.358 57.2183 126.555 57.2183C126.666 57.2183 126.797 57.2571 126.936 57.3386L150.966 71.3278C151.358 71.5568 151.674 72.0304 151.674 72.3836C151.674 72.6126 151.543 72.7368 151.347 72.7368Z" fill="#C2B4BB"/>
<path d="M132.29 54.4975C132.29 54.2025 132.39 53.9968 132.552 53.892C132.552 53.892 132.575 53.8726 132.621 53.8532L133.999 53.0419C134.172 52.9449 134.407 52.9604 134.669 53.1118L162.217 69.1311L163.017 65.8706C163.09 65.6222 163.237 65.4475 163.418 65.3388H163.414L164.849 64.4965V64.5043C165.096 64.3568 165.415 64.349 165.719 64.5276L177.44 71.3475C177.967 71.6542 178.395 72.3994 178.395 73.0127V112.422C178.395 112.717 178.298 112.927 178.137 113.032L176.662 113.894C176.493 113.979 176.266 113.96 176.012 113.812L133.229 88.9039C132.702 88.5973 132.274 87.852 132.274 87.2387L132.29 54.5014V54.4975Z" fill="#B2068A"/>
<path d="M163.441 65.3193C163.687 65.1835 163.995 65.1873 164.295 65.3581L176.016 72.1781C176.274 72.3333 176.512 72.5973 176.689 72.8962L178.117 72.0577C177.944 71.755 177.709 71.491 177.444 71.3397L165.723 64.5197C165.415 64.3412 165.1 64.3528 164.853 64.4964L163.445 65.3193H163.441Z" fill="#63364C"/>
<path d="M132.621 53.8533C132.786 53.7835 133.01 53.8106 133.244 53.9465L160.819 69.9891C161.347 70.2957 161.916 70.0706 162.09 69.4767L162.217 69.1274L134.669 53.1081C134.518 53.0188 134.372 52.98 134.245 52.98C134.153 52.98 134.068 53.0033 133.999 53.0421H133.995L132.617 53.8533H132.621Z" fill="#63364C"/>
<path d="M132.294 54.5014L132.278 87.2387C132.278 87.852 132.706 88.5972 133.233 88.9039L176.127 113.878C176.501 114.095 176.97 113.824 176.97 113.389V73.8511C176.97 73.5444 176.866 73.2067 176.693 72.9079C176.516 72.6051 176.278 72.345 176.02 72.1898L164.299 65.3659C163.999 65.1951 163.691 65.1874 163.445 65.3271L163.422 65.3426H163.429C163.248 65.4474 163.106 65.626 163.033 65.8744L162.228 69.135L162.101 69.4843C161.924 70.0743 161.358 70.2994 160.831 69.9967L133.256 53.9541C133.021 53.8143 132.798 53.791 132.632 53.8609L132.594 53.8803L132.575 53.892L132.563 53.8997C132.405 54.0045 132.301 54.2141 132.301 54.5091L132.294 54.5014Z" fill="#4C2639"/>
<path d="M150.073 84.6496C150.173 84.603 150.277 84.5797 150.377 84.5797C150.646 84.5797 150.904 84.7311 151.024 84.9951L153.056 89.3308V81.6375C153.056 81.2377 153.375 80.9155 153.772 80.9155C154.168 80.9155 154.488 81.2377 154.488 81.6375V90.8524L156.67 88.733C156.955 88.4536 157.409 88.4652 157.682 88.7524C157.956 89.0397 157.948 89.4977 157.663 89.7733L154.268 93.0688C154.103 93.2318 153.872 93.3017 153.641 93.259C153.414 93.2163 153.221 93.0688 153.125 92.8592L149.73 85.6122C149.561 85.2513 149.715 84.8204 150.073 84.6496Z" fill="#B2068A"/>
<path d="M158.649 86.2955C158.252 86.2955 157.933 85.9734 157.933 85.5736V81.2184L149.611 76.3742V79.8948C149.611 80.2946 149.291 80.6168 148.895 80.6168C148.498 80.6168 148.179 80.2946 148.179 79.8948V75.1243C148.179 74.8681 148.318 74.6275 148.537 74.4994C148.649 74.4373 148.772 74.4023 148.895 74.4023C149.018 74.4023 149.141 74.4334 149.253 74.4994L159.003 80.1781C159.226 80.3062 159.361 80.5469 159.361 80.8031V85.5736C159.361 85.9734 159.041 86.2955 158.645 86.2955H158.649Z" fill="#B2068A"/>
<path d="M176.62 113.905L176.662 113.89L178.137 113.028C178.294 112.923 178.395 112.713 178.395 112.418V73.0087C178.395 72.6981 178.287 72.3643 178.114 72.0654L176.686 72.9039C176.859 73.2066 176.963 73.5443 176.963 73.851V113.385C176.963 113.629 176.816 113.827 176.616 113.905H176.62Z" fill="#340D20"/>
<path d="M91.9935 88.1585L51.9243 111.487L49.4916 112.904C49.4531 112.923 49.4146 112.946 49.38 112.966C49.3146 112.997 49.2453 113.024 49.176 113.047C49.0952 113.078 49.0066 113.105 48.9219 113.117C48.8642 113.133 48.8103 113.137 48.7526 113.144H48.7179C48.6487 113.16 48.5717 113.164 48.5024 113.164C48.256 113.164 48.029 113.117 47.8634 113.02C47.4708 112.787 47.059 112.135 46.9512 111.557L40.1999 76.1838C40.1845 76.1101 40.1768 76.0286 40.1768 75.9509C40.1768 75.8888 40.1768 75.8228 40.1922 75.7607V75.753C40.2076 75.6559 40.2268 75.5589 40.2576 75.4657C40.2884 75.3687 40.3307 75.2755 40.3769 75.1902C40.4039 75.1319 40.4385 75.0776 40.477 75.0232C40.5193 74.9611 40.5655 74.9068 40.6156 74.8525C40.6579 74.802 40.7079 74.7554 40.758 74.7166C40.808 74.6739 40.8619 74.639 40.9158 74.6079L83.4177 49.8628C83.4524 49.8395 83.4908 49.8201 83.5293 49.8007C83.5678 49.7813 83.6063 49.7619 83.6487 49.7464L83.7064 49.7269C83.7603 49.7114 83.8103 49.7037 83.8604 49.7075C84.126 49.7269 84.3492 49.9094 84.6148 50.0646C85.119 50.3635 85.5578 50.6236 85.5578 50.6236C85.6271 50.6546 85.6925 50.7012 85.7464 50.7633C85.8196 50.841 85.8811 50.9419 85.9196 51.0583C85.9389 51.1088 85.9466 51.1592 85.9581 51.2058L92.7095 86.5826C92.8172 87.161 92.4978 87.8674 91.9935 88.1624" fill="#B2068A"/>
<path d="M91.9935 88.1585L51.9243 111.487L49.4916 112.904C49.4531 112.923 49.4146 112.946 49.38 112.966C49.3146 112.997 49.2453 113.024 49.176 113.047C49.0952 113.078 49.0066 113.105 48.9219 113.117C48.8642 113.133 48.8103 113.137 48.7526 113.144H48.7179C48.6487 113.16 48.5717 113.164 48.5024 113.164C48.256 113.164 48.029 113.117 47.8634 113.02C47.4708 112.787 47.059 112.135 46.9512 111.557L40.1999 76.1838C40.1845 76.1101 40.1768 76.0286 40.1768 75.9509C40.1768 75.8888 40.1768 75.8228 40.1922 75.7607V75.753C40.2076 75.6559 40.2268 75.5589 40.2576 75.4657C40.2884 75.3687 40.3307 75.2755 40.3769 75.1902C40.4039 75.1319 40.4385 75.0776 40.477 75.0232C40.5193 74.9611 40.5655 74.9068 40.6156 74.8525C40.6579 74.802 40.7079 74.7554 40.758 74.7166C40.808 74.6739 40.8619 74.639 40.9158 74.6079L83.4177 49.8628C83.4524 49.8395 83.4908 49.8201 83.5293 49.8007C83.5678 49.7813 83.6063 49.7619 83.6487 49.7464L83.7064 49.7269C83.7603 49.7114 83.8103 49.7037 83.8604 49.7075C84.126 49.7269 84.3492 49.9094 84.6148 50.0646C85.119 50.3635 85.5578 50.6236 85.5578 50.6236C85.6271 50.6546 85.6925 50.7012 85.7464 50.7633C85.8196 50.841 85.8811 50.9419 85.9196 51.0583C85.9389 51.1088 85.9466 51.1592 85.9581 51.2058L92.7095 86.5826C92.8172 87.161 92.4978 87.8674 91.9935 88.1624" fill="#B2068A"/>
<path d="M47.8403 113.009C47.4516 112.768 47.0513 112.128 46.9473 111.557L43.3061 92.4867L41.6202 83.6561L40.1921 76.1802C40.169 76.0443 40.1652 75.9046 40.1844 75.761C40.1844 75.761 40.1844 75.7571 40.1844 75.7532C40.2037 75.6096 40.2422 75.4699 40.2961 75.3379C40.3192 75.2874 40.3423 75.2331 40.3692 75.1826L41.7972 76.0133C41.6702 76.2501 41.5971 76.5179 41.5971 76.7779C41.5971 76.8478 41.6009 76.9177 41.6125 76.9837C41.6125 76.9914 41.6125 77.0031 41.6163 77.0108L42.8904 83.6949L47.5978 108.37V112.415C47.5978 112.609 47.6402 112.768 47.7172 112.884C47.7172 112.888 47.721 112.892 47.7249 112.896C47.7557 112.939 47.7903 112.978 47.8288 113.009" fill="#AD068F"/>
<path d="M40.8657 74.6273C40.8657 74.6273 40.8927 74.6117 40.9081 74.6001C40.8927 74.6079 40.8811 74.6156 40.8657 74.6273Z" fill="white"/>
<path d="M41.8011 76.0172L40.373 75.1865C40.4 75.1283 40.4346 75.074 40.4731 75.0196C40.5155 74.9575 40.5617 74.9032 40.6117 74.8488C40.6887 74.7673 40.7772 74.6897 40.8696 74.6276C40.885 74.6198 40.8965 74.6121 40.9119 74.6004L71.4431 56.8228V58.488L61.1429 64.485C61.0236 64.419 60.8927 64.3802 60.7541 64.3802C60.654 64.3802 60.5501 64.3996 60.4462 64.4384C60.3923 64.4578 60.3384 64.485 60.2845 64.5161L48.564 71.336C48.3446 71.4602 48.1444 71.6659 47.9827 71.9066C47.9058 72.0192 47.8403 72.1395 47.7826 72.2637L42.3399 75.435C42.3169 75.4466 42.2976 75.4621 42.2745 75.4738C42.2245 75.5087 42.1744 75.5475 42.1282 75.5902C41.9974 75.7067 41.8896 75.8542 41.8011 76.0133" fill="#B4248F"/>
<path d="M48.3752 112.391L41.6239 77.0147C41.5122 76.4364 41.8356 75.7299 42.3398 75.4349L84.8417 50.6898C85.346 50.3948 85.8463 50.6238 85.958 51.2022L92.7093 86.5789C92.8209 87.1573 92.4976 87.8637 91.9934 88.1587L49.4915 112.904C48.9872 113.199 48.4868 112.97 48.3791 112.391" fill="#B2068A"/>
<path d="M47.6094 108.374L41.624 77.0147C41.624 77.0147 41.624 76.9953 41.6201 76.9875C41.6086 76.9215 41.6047 76.8517 41.6047 76.7818C41.6047 76.2578 41.905 75.6949 42.3399 75.4388L47.7826 72.2675C47.721 72.4034 47.6748 72.5431 47.644 72.6828C47.6209 72.7915 47.6055 72.9002 47.6055 73.0089V74.7905L43.8411 76.9836C43.8411 76.9836 43.8218 76.9953 43.8103 77.003C43.7833 77.0224 43.7525 77.0418 43.7256 77.0651C43.691 77.0923 43.6563 77.1272 43.6255 77.1622C43.5909 77.201 43.5562 77.2398 43.5254 77.2864C43.4985 77.3252 43.4754 77.364 43.4562 77.4067C43.4369 77.4417 43.4215 77.4766 43.4061 77.5154C43.3946 77.5465 43.383 77.5736 43.3715 77.6086C43.3484 77.6746 43.333 77.7483 43.3214 77.8143V77.8221C43.3137 77.8686 43.3137 77.9113 43.3137 77.9579C43.3137 78.0161 43.3176 78.0744 43.3291 78.1248L47.6055 100.533V108.386M62.9712 65.8435C62.898 65.6106 62.7556 65.4398 62.5824 65.335L61.1467 64.4966C61.1467 64.4966 61.139 64.4966 61.1351 64.4966L71.4354 58.4995V60.9177L62.9673 65.8474" fill="#AE068D"/>
<path d="M80.5963 86.7301L51.7703 103.514L50.0189 104.535L49.9381 104.578C49.8919 104.601 49.8419 104.62 49.7918 104.636C49.7341 104.659 49.6687 104.679 49.6109 104.686C49.5724 104.698 49.5301 104.702 49.4878 104.706H49.4608C49.4108 104.717 49.3569 104.717 49.3069 104.717C49.1298 104.717 48.9681 104.682 48.845 104.616C48.5601 104.449 48.2676 103.98 48.1906 103.564L43.333 78.1168C43.3215 78.0625 43.3176 78.0042 43.3176 77.9499C43.3176 77.9033 43.3176 77.8567 43.3292 77.8141C43.3407 77.7403 43.3561 77.6665 43.3792 77.6006C43.4023 77.5307 43.4331 77.4647 43.4639 77.4026C43.4831 77.3599 43.5101 77.3211 43.5332 77.2823C43.564 77.2396 43.5948 77.1969 43.6333 77.1581C43.664 77.1231 43.6987 77.0882 43.7333 77.061C43.768 77.03 43.8103 77.0067 43.8488 76.9834L74.4262 59.1824L74.507 59.1397L74.5917 59.1009L74.634 59.0893C74.6725 59.0776 74.711 59.0737 74.7456 59.0776C74.9343 59.0932 75.0959 59.2251 75.2884 59.3338C75.6502 59.5473 75.9658 59.7336 75.9658 59.7336C76.0159 59.7569 76.062 59.7918 76.1005 59.8345C76.1544 59.8889 76.1968 59.9626 76.2237 60.0441C76.2353 60.0791 76.243 60.1179 76.2507 60.1489L81.1082 85.5966C81.1852 86.012 80.9543 86.5204 80.5925 86.7339" fill="#B2068A"/>
<path d="M80.5963 86.7301L51.7703 103.514L50.0189 104.535L49.9381 104.578C49.8919 104.601 49.8419 104.62 49.7918 104.636C49.7341 104.659 49.6687 104.679 49.6109 104.686C49.5724 104.698 49.5301 104.702 49.4878 104.706H49.4608C49.4108 104.717 49.3569 104.717 49.3069 104.717C49.1298 104.717 48.9681 104.682 48.845 104.616C48.5601 104.449 48.2676 103.98 48.1906 103.564L43.333 78.1168C43.3215 78.0625 43.3176 78.0042 43.3176 77.9499C43.3176 77.9033 43.3176 77.8567 43.3292 77.8141C43.3407 77.7403 43.3561 77.6665 43.3792 77.6006C43.4023 77.5307 43.4331 77.4647 43.4639 77.4026C43.4831 77.3599 43.5101 77.3211 43.5332 77.2823C43.564 77.2396 43.5948 77.1969 43.6333 77.1581C43.664 77.1231 43.6987 77.0882 43.7333 77.061C43.768 77.03 43.8103 77.0067 43.8488 76.9834L74.4262 59.1824L74.507 59.1397L74.5917 59.1009L74.634 59.0893C74.6725 59.0776 74.711 59.0737 74.7456 59.0776C74.9343 59.0932 75.0959 59.2251 75.2884 59.3338C75.6502 59.5473 75.9658 59.7336 75.9658 59.7336C76.0159 59.7569 76.062 59.7918 76.1005 59.8345C76.1544 59.8889 76.1968 59.9626 76.2237 60.0441C76.2353 60.0791 76.243 60.1179 76.2507 60.1489L81.1082 85.5966C81.1852 86.012 80.9543 86.5204 80.5925 86.7339" fill="#B2068A"/>
<path d="M49.938 104.574C49.58 104.749 49.1143 104.768 48.8449 104.617C48.56 104.45 48.2675 103.98 48.1905 103.565L43.3329 78.117C43.2906 77.8841 43.3445 77.6202 43.4638 77.3989L44.4915 77.9967C44.3722 78.2179 44.3183 78.4819 44.3606 78.7148L49.2182 104.166C49.2914 104.551 49.6031 104.721 49.938 104.578" fill="#D9D8D9"/>
<path d="M75.2844 59.326C75.6463 59.5395 75.9619 59.7258 75.9619 59.7258C75.8156 59.6559 75.6309 59.6676 75.45 59.7763L44.8726 77.5772C44.7148 77.6704 44.5801 77.8179 44.4877 77.9926L43.46 77.3948C43.4792 77.3521 43.5062 77.3133 43.5292 77.2745C43.56 77.2318 43.5908 77.1891 43.6293 77.1502C43.6909 77.0804 43.7679 77.0183 43.8449 76.9756L74.4222 59.1746C74.4761 59.1436 74.53 59.1164 74.5877 59.0931L74.6301 59.0815C74.6686 59.0698 74.7071 59.0659 74.7417 59.0698C74.9303 59.0853 75.092 59.2173 75.2844 59.326Z" fill="#F6F8F6"/>
<path d="M49.2182 104.162L44.3606 78.7147C44.2798 78.2993 44.5107 77.7908 44.8764 77.5812L75.4538 59.7803C75.8156 59.5707 76.1774 59.7337 76.2544 60.149L81.112 85.5967C81.1928 86.012 80.9618 86.5205 80.5962 86.734L50.0188 104.535C49.657 104.745 49.2952 104.582 49.2182 104.166" fill="#EEF0EE"/>
<path d="M71.8316 79.2465C71.6161 79.1223 71.4429 78.804 71.4429 78.5362V32.256C71.4429 31.9882 71.6276 31.6621 71.8586 31.5301L100.681 14.75C100.912 14.6181 101.27 14.6103 101.485 14.7345C101.701 14.8587 101.874 15.177 101.874 15.4448V61.725C101.874 61.9928 101.689 62.3189 101.458 62.4509L72.6361 79.2309C72.4052 79.3668 72.0472 79.3707 71.8316 79.2465Z" fill="#E4E4E5"/>
<path d="M101.87 15.3672C101.836 15.1537 101.666 15.08 101.458 15.2003L72.6362 31.9804C72.5207 32.0464 72.4129 32.1667 72.3436 32.2948L71.5623 31.8407C71.6354 31.7087 71.7432 31.5923 71.8586 31.5263L100.677 14.7462C100.904 14.6103 101.27 14.6025 101.481 14.7268C101.674 14.8432 101.839 15.1149 101.87 15.3672Z" fill="#F6F8F6"/>
<path d="M72.5825 79.2583C72.3554 79.3631 72.032 79.3592 71.8319 79.2428C71.6163 79.1185 71.4431 78.8003 71.4431 78.5324V32.2523C71.4431 32.1164 71.4893 31.9728 71.5624 31.8408L72.3438 32.295C72.2668 32.4269 72.2206 32.5706 72.2206 32.7064V78.9866C72.2206 79.2311 72.3784 79.3437 72.5786 79.2583" fill="#D9D8D9"/>
<path d="M72.6362 79.2309L101.458 62.4507C101.689 62.3188 101.874 61.9927 101.874 61.7249V15.4408C101.874 15.173 101.689 15.0643 101.458 15.2002L72.6362 31.9803C72.4052 32.1123 72.2205 32.4383 72.2205 32.7061V78.9863C72.2205 79.2541 72.4052 79.3628 72.6362 79.227" fill="#EEF0EE"/>
<path d="M74.6531 53.4146C74.4568 53.4146 74.3259 53.2904 74.3259 53.0614C74.3259 52.7043 74.6416 52.2346 75.0342 52.0056L99.0603 38.0163C99.1989 37.9348 99.3298 37.896 99.4414 37.896C99.6377 37.896 99.7686 38.0202 99.7686 38.2492C99.7686 38.6063 99.4529 39.076 99.0603 39.305L75.0342 53.2943C74.8917 53.3758 74.7647 53.4146 74.6531 53.4146Z" fill="#C2B4BB"/>
<path d="M74.6531 57.2808C74.4568 57.2808 74.3259 57.1566 74.3259 56.9276C74.3259 56.5705 74.6416 56.1008 75.0342 55.8718L99.0603 41.8825C99.1989 41.801 99.3298 41.7622 99.4414 41.7622C99.6377 41.7622 99.7686 41.8864 99.7686 42.1154C99.7686 42.4725 99.4529 42.9422 99.0603 43.1712L75.0342 57.1605C74.8917 57.242 74.7647 57.2808 74.6531 57.2808Z" fill="#C2B4BB"/>
<path d="M74.6531 61.1426C74.4568 61.1426 74.3259 61.0184 74.3259 60.7894C74.3259 60.4323 74.6416 59.9626 75.0342 59.7336L99.0603 45.7444C99.1989 45.6628 99.3298 45.624 99.4414 45.624C99.6377 45.624 99.7686 45.7482 99.7686 45.9772C99.7686 46.3344 99.4529 46.804 99.0603 47.033L75.0342 61.0223C74.8917 61.1038 74.7647 61.1426 74.6531 61.1426Z" fill="#C2B4BB"/>
<path d="M93.6138 54.0705C93.5715 53.9929 93.5138 53.9346 93.4483 53.892C93.4483 53.892 93.4252 53.8725 93.379 53.8531L92.5823 53.3835L99.0603 49.6106C99.1989 49.529 99.3298 49.4902 99.4414 49.4902C99.6377 49.4902 99.7686 49.6144 99.7686 49.8435C99.7686 50.2006 99.4529 50.6702 99.0603 50.8993L93.61 54.0705" fill="#C2B4BB"/>
<path d="M93.7141 57.8785V56.5898L99.0644 53.4729C99.203 53.3914 99.3338 53.3525 99.4454 53.3525C99.6417 53.3525 99.7726 53.4768 99.7726 53.7058C99.7726 54.0629 99.457 54.5325 99.0644 54.7616L93.7141 57.8785Z" fill="#C2B4BB"/>
<path d="M93.7141 61.7403V60.4516L99.0605 57.3386C99.1991 57.2571 99.33 57.2183 99.4416 57.2183C99.6379 57.2183 99.7688 57.3425 99.7688 57.5715C99.7688 57.9286 99.4531 58.4021 99.0605 58.6273L93.7141 61.7403Z" fill="#C2B4BB"/>
<path d="M93.7102 54.4975C93.7102 54.2025 93.6101 53.9968 93.4485 53.892C93.4485 53.892 93.4254 53.8726 93.3792 53.8532L92.0012 53.0419C91.828 52.9449 91.5932 52.9604 91.3315 53.1118L63.7834 69.1311L62.9827 65.8706C62.9096 65.6222 62.7633 65.4475 62.5863 65.3388H62.5901L61.1544 64.4965V64.5043C60.9081 64.3568 60.5886 64.349 60.2845 64.5276L48.564 71.3475C48.0366 71.6542 47.6094 72.3994 47.6094 73.0127V112.422C47.6094 112.717 47.7056 112.927 47.8673 113.032L49.3415 113.894C49.5108 113.979 49.7379 113.96 49.992 113.812L92.7749 88.9039C93.3022 88.5973 93.7295 87.852 93.7295 87.2387L93.7141 54.5014" fill="#B2068A"/>
<path d="M47.9827 71.9101C48.1443 71.6694 48.3445 71.4676 48.5639 71.3395C48.3445 71.4676 48.1443 71.6694 47.9827 71.9062" fill="#C561A9"/>
<path d="M61.1542 64.4965H61.1504V64.4927H61.1542V64.4965Z" fill="#C04AA3"/>
<path d="M49.3146 72.9L47.8904 72.0616C47.9212 72.0112 47.952 71.9607 47.9828 71.9102C48.1444 71.6735 48.3446 71.4677 48.564 71.3435L60.2845 64.5236C60.3384 64.4925 60.3923 64.4654 60.4462 64.4459C60.5501 64.4071 60.654 64.3916 60.7503 64.3916C60.8965 64.3916 61.0313 64.4304 61.1544 64.5003L62.5632 65.3232C62.4477 65.2611 62.3207 65.2261 62.186 65.2261C62.032 65.2261 61.8704 65.2688 61.7087 65.362L49.9882 72.1819C49.7803 72.3062 49.584 72.5002 49.4262 72.7292C49.3877 72.7836 49.3492 72.8418 49.3146 72.9Z" fill="#C14EA0"/>
<path d="M63.7832 69.127L71.4429 64.6709L63.7832 69.127Z" fill="#F5F5F6"/>
<path d="M71.4431 64.6709L72.2206 64.2168V64.2207L71.4431 64.6709Z" fill="#E5E5E6"/>
<path d="M93.3829 53.853L92.5823 53.3833L93.3829 53.853Z" fill="#D8CFD5"/>
<path d="M64.7031 70.1249C64.3452 70.1249 64.0295 69.892 63.9102 69.4767L63.7832 69.1273L71.4429 64.6713L72.2205 64.2171L91.3275 53.1041C91.4352 53.042 91.5392 53.0032 91.6354 52.9838C91.6739 52.976 91.7124 52.9722 91.7509 52.9722C91.8433 52.9722 91.9279 52.9955 91.9972 53.0343H92.0011L92.5823 53.3759L93.379 53.8455C93.3213 53.8222 93.252 53.8067 93.1827 53.8067C93.0519 53.8067 92.9056 53.8494 92.7555 53.9387L65.1804 69.9813C65.0226 70.0744 64.8571 70.1171 64.7031 70.1171" fill="#C14EA0"/>
<path d="M93.7101 54.5014L93.7255 87.2387C93.7255 87.852 93.2983 88.5972 92.7709 88.9039L49.8764 113.878C49.503 114.095 49.0334 113.824 49.0334 113.389V73.8511C49.0334 73.5444 49.1374 73.2067 49.3106 72.9079C49.4876 72.6051 49.7263 72.345 49.9842 72.1898L61.7047 65.3659C62.005 65.1951 62.3129 65.1874 62.5592 65.3271L62.5823 65.3426H62.5746C62.7555 65.4474 62.898 65.626 62.9711 65.8744L63.7756 69.135L63.9026 69.4843C64.0796 70.0743 64.6455 70.2994 65.1728 69.9967L92.7478 53.9541C92.9826 53.8143 93.2059 53.791 93.3714 53.8609L93.4099 53.8803L93.433 53.892L93.4445 53.8997C93.6024 54.0045 93.7063 54.2141 93.7063 54.5091" fill="#B2068A"/>
<path d="M67.5016 84.7275C67.6055 84.7779 67.7133 84.8012 67.8211 84.8012C68.1021 84.8012 68.3715 84.6421 68.4985 84.3665L70.6309 79.8173V87.8832C70.6309 88.3024 70.9658 88.6401 71.3815 88.6401C71.7972 88.6401 72.1321 88.3024 72.1321 87.8832V78.2219L74.4223 80.4422C74.7226 80.7333 75.196 80.7217 75.4847 80.4228C75.7734 80.12 75.7618 79.6426 75.4654 79.3515L71.905 75.8968C71.7318 75.7299 71.4893 75.6523 71.2468 75.6989C71.0082 75.7416 70.808 75.9007 70.7041 76.122L67.1436 83.7221C66.9666 84.0986 67.1283 84.5528 67.5016 84.7313V84.7275Z" fill="#340D20"/>
<path d="M76.4931 82.3516C76.0773 82.3516 75.7425 82.6893 75.7425 83.1085V87.6771L67.0165 92.7581V89.0628C67.0165 88.6436 66.6817 88.3059 66.266 88.3059C65.8503 88.3059 65.5154 88.6436 65.5154 89.0628V94.0701C65.5154 94.3418 65.6578 94.5902 65.8887 94.7261C66.0042 94.792 66.1351 94.827 66.266 94.827C66.3968 94.827 66.5238 94.792 66.6393 94.7261L76.8664 88.7717C77.0974 88.6358 77.2398 88.3874 77.2398 88.1157V83.1124C77.2398 82.6931 76.9049 82.3554 76.4892 82.3554L76.4931 82.3516Z" fill="#340D20"/>
<path d="M49.349 113.893H49.3413L47.8671 113.028C47.8594 113.024 47.8517 113.016 47.844 113.012C47.844 113.012 47.844 113.012 47.8517 113.012C47.8594 113.016 47.8632 113.02 47.8709 113.024L49.3451 113.886C49.3451 113.886 49.349 113.886 49.3528 113.889" fill="#C0BEBF"/>
<path d="M47.848 113.012C47.848 113.012 47.848 113.012 47.8403 113.012C47.8018 112.981 47.7672 112.947 47.7364 112.9C47.7672 112.947 47.8057 112.985 47.848 113.012ZM47.7287 112.884C47.6517 112.768 47.6094 112.613 47.6094 112.415V108.37V108.378V112.415C47.6094 112.609 47.6517 112.768 47.7287 112.884Z" fill="#9A0684"/>
<path d="M47.6094 74.7864V73.0048C47.6094 72.9 47.6209 72.7913 47.6479 72.6787C47.6248 72.7913 47.6132 72.9 47.6132 73.0048V74.7864" fill="#A6068E"/>
<path d="M49.3569 113.893H49.3492C49.3492 113.893 49.3453 113.889 49.3415 113.886L47.8673 113.024C47.8673 113.024 47.8557 113.016 47.848 113.012C47.8057 112.981 47.7672 112.942 47.7364 112.9C47.7364 112.9 47.7325 112.892 47.7287 112.888C47.6517 112.772 47.6094 112.616 47.6094 112.418V108.382V100.529V95.7431V75.9858V74.7864V73.0047C47.6094 72.8999 47.6209 72.7912 47.644 72.6787C47.6902 72.4691 47.7749 72.2556 47.8904 72.0576L49.3145 72.896C49.1413 73.1949 49.0374 73.5365 49.0374 73.8393V113.377C49.0374 113.614 49.1721 113.8 49.3569 113.889" fill="#AD068F"/>
<path d="M49.3146 72.8999L47.8904 72.0615L49.3146 72.8999Z" fill="#B90D93"/>
<path d="M49.3838 113.905L49.3568 113.897C49.1721 113.808 49.0374 113.622 49.0374 113.385V73.847C49.0374 73.5404 49.1413 73.2027 49.3145 72.9038C49.1413 73.2066 49.0374 73.5481 49.0374 73.8509V113.385C49.0374 113.629 49.1836 113.827 49.3838 113.905Z" fill="#AD068F"/>
<path d="M133.833 104.263V107.221L145.13 119.568V116.611L133.833 104.263Z" fill="#B2068A"/>
<path d="M145.13 119.568L141.339 115.423L141.562 112.71L145.13 116.611V119.568ZM141.562 112.713L137.178 110.877L133.833 107.221V104.263L141.562 112.713Z" fill="#AE068D"/>
<path d="M146.22 106.507V103.549L145.13 116.611V119.569L146.22 106.507Z" fill="#B2068A"/>
<path d="M145.13 119.569V116.611L146.22 103.549V106.507L145.13 119.569Z" fill="#AD068F"/>
<path d="M108.171 124.203C94.9996 123.089 82.9134 117.764 76.9626 110L77.1897 107.287L81.8202 106.212C87.8787 114.111 102.694 119.11 117.055 118.093C125.554 117.496 132.886 114.86 137.174 110.87L141.562 112.71L141.335 115.423C135.962 120.422 127.49 123.566 117.478 124.273C114.361 124.494 111.231 124.463 108.167 124.203" fill="#B2068A"/>
<path d="M141.339 115.423L141.562 112.713L141.339 115.423Z" fill="#AA008E"/>
<path d="M113.294 124.42C111.574 124.42 109.861 124.347 108.167 124.203C94.9957 123.089 82.9095 117.764 76.9587 110L77.1858 107.287L81.8163 106.212C87.3513 113.428 100.2 118.225 113.329 118.225C114.568 118.225 115.812 118.183 117.051 118.093C125.55 117.496 132.883 114.86 137.17 110.87L141.558 112.71L141.335 115.423C135.962 120.422 127.49 123.566 117.478 124.273C116.081 124.37 114.684 124.42 113.291 124.42" fill="#AE068D"/>
<path d="M146.22 103.549L133.83 104.263L137.398 108.16C133.11 112.151 125.773 114.782 117.278 115.384C102.917 116.401 88.1021 111.401 82.0436 103.502L77.186 107.291C83.1368 115.054 95.223 120.38 108.395 121.494C111.462 121.754 114.588 121.785 117.706 121.563C127.713 120.857 136.185 117.713 141.562 112.713L145.131 116.614L146.22 103.553V103.549Z" fill="#B2068A"/>
<path d="M76.2506 48.0073L75.9619 38.0355L77.6093 37.0807L77.7248 41.005L80.9542 39.134L80.8387 35.2098L82.4862 34.2549L82.7748 44.2267L81.1274 45.1816L81.0004 40.8225L77.771 42.6935L77.898 47.0525L76.2506 48.0073Z" fill="#4C2639"/>
<path d="M84.4838 43.2444L84.1951 33.2727L90.2497 29.7676L90.2998 31.4561L85.8925 34.0063L85.958 36.2188L90.0573 33.8471L90.1073 35.5279L86.008 37.8995L86.085 40.6127L90.6462 37.9733L90.6962 39.654L84.4838 43.2483V43.2444Z" fill="#4C2639"/>
<path d="M91.2621 39.3242L93.9025 32.5042L91.2351 29.201L93.1635 28.087L94.8956 30.3422L96.4083 26.2083L98.3175 25.1021L95.9195 31.4135L98.8602 34.9263L96.8702 36.0753L94.9611 33.6726L93.2443 38.1714L91.2659 39.3164L91.2621 39.3242Z" fill="#4C2639"/>
<path d="M128.803 33.3158L128.525 23.4683L131.52 25.0752C132.274 25.4789 132.821 25.8632 133.167 26.2242C133.514 26.5852 133.795 27.0471 134.014 27.6099C134.234 28.1727 134.349 28.7433 134.365 29.3256C134.384 30.0631 134.245 30.591 133.949 30.9054C133.652 31.2198 133.194 31.2741 132.582 31.0684C132.898 31.4837 133.16 31.8952 133.368 32.3028C133.575 32.7103 133.86 33.3896 134.222 34.3367L135.134 36.72L133.433 35.8078L132.344 33.114C131.959 32.1514 131.693 31.5342 131.555 31.2625C131.416 30.9908 131.27 30.7773 131.116 30.622C130.962 30.4668 130.723 30.3037 130.396 30.1252L130.107 29.9699L130.223 34.0805L128.803 33.3158ZM130.065 28.3979L131.116 28.9646C131.797 29.3295 132.224 29.5197 132.39 29.5313C132.559 29.5429 132.686 29.4731 132.779 29.3295C132.871 29.1858 132.91 28.9646 132.902 28.6696C132.894 28.3397 132.821 28.0369 132.69 27.7652C132.559 27.4935 132.375 27.2683 132.144 27.0898C132.028 27.0044 131.682 26.8064 131.104 26.4998L129.996 25.902L130.065 28.4018V28.3979Z" fill="#B2068A"/>
<path d="M139.076 35.2719L139.03 33.6106L142.093 35.2564L142.205 39.1807C141.92 39.4252 141.497 39.5456 140.939 39.5494C140.381 39.5494 139.815 39.3981 139.234 39.0875C138.498 38.6916 137.848 38.1288 137.29 37.4029C136.732 36.6771 136.301 35.8386 136.004 34.8838C135.708 33.9328 135.542 32.9818 135.519 32.0386C135.492 31.0138 135.619 30.1832 135.904 29.5505C136.189 28.9178 136.624 28.549 137.201 28.4403C137.644 28.3549 138.202 28.4947 138.872 28.8557C139.745 29.3253 140.434 29.9503 140.943 30.7266C141.447 31.5029 141.786 32.384 141.951 33.3622L140.55 32.974C140.438 32.4384 140.238 31.9532 139.957 31.5262C139.676 31.0992 139.33 30.7771 138.918 30.5558C138.298 30.222 137.809 30.2336 137.459 30.5869C137.109 30.9401 136.947 31.6582 136.978 32.745C137.013 33.9134 137.22 34.8915 137.609 35.6756C137.998 36.4597 138.491 37.0148 139.095 37.3369C139.391 37.4961 139.688 37.5776 139.984 37.5737C140.281 37.5737 140.531 37.5116 140.739 37.3952L140.704 36.1453L139.076 35.2719Z" fill="#B2068A"/>
<path d="M143.283 31.3984L146.097 32.9123C146.655 33.2111 147.07 33.4673 147.348 33.6808C147.625 33.8943 147.871 34.1582 148.094 34.4804C148.318 34.8026 148.502 35.1752 148.656 35.5944C148.81 36.0136 148.891 36.4367 148.907 36.8637C148.918 37.3256 148.841 37.7021 148.676 37.9894C148.51 38.2766 148.275 38.4396 147.975 38.4668C148.41 38.8705 148.749 39.3479 148.991 39.8913C149.234 40.4348 149.365 40.9937 149.38 41.5604C149.392 42.0068 149.33 42.4027 149.191 42.7482C149.053 43.0898 148.86 43.3188 148.61 43.4352C148.36 43.5517 148.044 43.5362 147.671 43.3887C147.436 43.2955 146.863 43.0121 145.958 42.5347L143.56 41.246L143.283 31.3984ZM144.753 33.8011L144.819 36.0796L145.75 36.5804C146.305 36.8792 146.647 37.0539 146.782 37.1005C147.024 37.1898 147.213 37.1781 147.348 37.0578C147.482 36.9375 147.544 36.7201 147.536 36.4018C147.529 36.0835 147.459 35.8157 147.336 35.5634C147.209 35.3072 147.028 35.0976 146.789 34.9307C146.647 34.8336 146.243 34.6046 145.573 34.2436L144.757 33.805L144.753 33.8011ZM144.861 37.7215L144.934 40.3571L146.251 41.0636C146.763 41.3392 147.086 41.4944 147.224 41.5255C147.436 41.5837 147.602 41.5449 147.729 41.4091C147.856 41.2732 147.913 41.0287 147.906 40.6793C147.898 40.3843 147.84 40.1048 147.733 39.8448C147.625 39.5847 147.471 39.3557 147.274 39.1577C147.078 38.9598 146.655 38.6881 146.008 38.3387L144.861 37.7215Z" fill="#B2068A"/>
</svg>
