<svg width="48" height="48" viewBox="0 0 48 48" fill="none" xmlns="http://www.w3.org/2000/svg">
<rect width="48" height="48" rx="8" fill="#005FCC"/>
<g clip-path="url(#clip0_343_242)">
<path d="M35.245 36H30.59C30.176 36 29.84 35.664 29.84 35.25V27.938C29.84 25.706 29.598 24.71 28.165 24.71C26.869 24.71 26.119 25.217 26.119 27.812V35.25C26.119 35.664 25.783 36 25.369 36H20.709C20.295 36 19.959 35.664 19.959 35.25V20.228C19.959 19.814 20.295 19.478 20.709 19.478H25.183C25.597 19.478 25.933 19.814 25.933 20.228V20.348C26.835 19.639 28.088 19.101 29.662 19.101C35.28 19.101 36 23.321 36 26.997V35.249C36 35.663 35.664 35.999 35.25 35.999L35.245 36ZM31.34 34.5H34.5V26.997C34.5 22.334 33.188 20.601 29.662 20.601C27.682 20.601 26.405 21.692 25.912 22.626C25.782 22.872 25.527 23.026 25.248 23.026C24.834 23.026 24.433 22.69 24.433 22.276V20.978H21.459V34.499H24.619V27.811C24.619 26.673 24.619 23.209 28.165 23.209C31.34 23.209 31.34 26.285 31.34 27.937V34.5ZM17.787 36H13.122C12.708 36 12.372 35.664 12.372 35.25V20.229C12.372 19.815 12.708 19.479 13.122 19.479H17.787C18.201 19.479 18.537 19.815 18.537 20.229V35.25C18.537 35.664 18.201 36 17.787 36ZM13.872 34.5H17.037V20.979H13.872V34.5ZM15.452 18.929C13.548 18.929 12 17.369 12 15.452C12 13.549 13.548 12 15.452 12C17.355 12 18.903 13.549 18.903 15.452C18.903 17.369 17.354 18.929 15.452 18.929ZM15.452 13.5C14.375 13.5 13.5 14.375 13.5 15.452C13.5 16.542 14.375 17.429 15.452 17.429C16.528 17.429 17.403 16.542 17.403 15.452C17.403 14.375 16.527 13.5 15.452 13.5Z" fill="white"/>
</g>
<defs>
<clipPath id="clip0_343_242">
<rect width="24" height="24" fill="white" transform="translate(12 12)"/>
</clipPath>
</defs>
</svg>
