<svg width="225" height="158" viewBox="0 0 225 158" fill="none" xmlns="http://www.w3.org/2000/svg">
<g clip-path="url(#clip0_343_9)">
<path d="M225 0H0V158H225V0Z" fill="#DEFFFC"/>
<path d="M0 111.561L111.143 47.2158L225 110.629V158H0V111.561Z" fill="#C7F9F3"/>
<path d="M113.021 125.682C111.309 125.682 109.577 125.608 107.864 125.465C94.3571 124.324 82.294 118.823 76.3818 111.115L76.147 110.808L81.6127 106.546L81.8475 106.853C87.2902 113.948 99.8306 118.715 113.052 118.715C114.288 118.715 115.531 118.672 116.747 118.587C124.973 118.004 132.086 115.512 136.347 111.724L132.49 107.509L146.135 106.724L144.935 121.113L141.031 116.848C135.581 121.754 127.148 124.836 117.225 125.539C115.835 125.636 114.419 125.686 113.014 125.686" fill="#25434C"/>
<path d="M96.9285 89.5407V83.9745L104.099 79.8018V85.368L96.9285 89.5407Z" fill="#A7A9AC"/>
<path d="M96.9285 83.9742L87.9639 78.7573V84.3235L96.9285 89.5404V83.9742Z" fill="#E0E0DF"/>
<path d="M96.9285 83.9744L104.311 79.6736L95.1348 74.3325L87.7522 78.6333L96.9285 83.9744Z" fill="#F8F7F6"/>
<path d="M96.9285 83.9741V85.3676L104.311 81.0668V79.6733L96.9285 83.9741Z" fill="#EAEAE9"/>
<path d="M96.9285 85.368L104.099 81.1914V81.4981L96.9285 85.6746V85.368Z" fill="#E0E0DF"/>
<path d="M87.7522 78.6333L96.9285 83.9744V85.3679L87.7522 80.0229V78.6333Z" fill="#E0E0DF"/>
<path d="M96.9285 85.3677L87.9639 80.147V80.4536L96.9285 85.6744V85.3677Z" fill="#D8D9D9"/>
<path d="M99.2879 84.8203L101.736 83.3957C101.84 83.3336 101.928 83.3841 101.928 83.5083V84.9678C101.928 85.092 101.844 85.2395 101.736 85.3016L99.2879 86.7261C99.184 86.7882 99.0955 86.7378 99.0955 86.6136V85.1541C99.0955 85.0299 99.1801 84.8824 99.2879 84.8203Z" fill="#E5E5E4"/>
<path d="M99.4456 84.9875L101.582 83.7454C101.651 83.7027 101.709 83.7376 101.709 83.8191V84.9137C101.709 84.9952 101.651 85.0962 101.582 85.135L99.4456 86.3771C99.3763 86.4159 99.3186 86.3848 99.3186 86.3033V85.2087C99.3186 85.1272 99.3763 85.0263 99.4456 84.9875Z" fill="#808285"/>
<path d="M96.9285 83.2755V77.7093L104.099 73.5327V79.0989L96.9285 83.2755Z" fill="#A7A9AC"/>
<path d="M96.9285 77.7095L87.9639 72.4888V78.055L96.9285 83.2757V77.7095Z" fill="#E0E0DF"/>
<path d="M96.9285 77.7092L104.311 73.4084L95.1348 68.0635L87.7522 72.3643L96.9285 77.7092Z" fill="#F0EFEE"/>
<path d="M96.9285 77.7095V79.0991L104.311 74.8022V73.4087L96.9285 77.7095Z" fill="#EAEAE9"/>
<path d="M96.9285 79.099L104.099 74.9263V75.2329L96.9285 79.4056V79.099Z" fill="#E0E0DF"/>
<path d="M87.7522 72.3643L96.9285 77.7092V79.0988L87.7522 73.7578V72.3643Z" fill="#E0E0DF"/>
<path d="M96.9285 79.0992L87.9639 73.8823V74.189L96.9285 79.4058V79.0992Z" fill="#D8D9D9"/>
<path d="M99.2879 78.5556L101.736 77.1311C101.84 77.069 101.928 77.1194 101.928 77.2436V78.7031C101.928 78.8273 101.844 78.9748 101.736 79.0369L99.2879 80.4615C99.184 80.5236 99.0955 80.4731 99.0955 80.3489V78.8894C99.0955 78.7652 99.1801 78.6177 99.2879 78.5556Z" fill="#E5E5E4"/>
<path d="M99.4456 78.7184L101.582 77.4763C101.651 77.4336 101.709 77.4686 101.709 77.5501V78.6447C101.709 78.7262 101.651 78.8271 101.582 78.8659L99.4456 80.108C99.3763 80.1507 99.3186 80.1158 99.3186 80.0343V78.9397C99.3186 78.8582 99.3763 78.7572 99.4456 78.7184Z" fill="#808285"/>
<path d="M103.711 79.3239L96.9284 83.2754L88.3526 78.2798L88.1409 78.404L96.9284 83.5044L103.922 79.4481L103.711 79.3239Z" fill="#D8D9D9"/>
<path d="M96.9284 83.5047L93.2256 81.3543V81.1175L96.9284 83.2757L103.711 79.3242L103.922 79.4484L96.9284 83.5047Z" fill="#D8D9D9"/>
<path d="M128.075 89.5407V83.9745L120.905 79.8018V85.368L128.075 89.5407Z" fill="#A7A9AC"/>
<path d="M128.075 83.9742L137.036 78.7573V84.3235L128.075 89.5404V83.9742Z" fill="#E0E0DF"/>
<path d="M128.075 83.9744L120.693 79.6736L129.865 74.3325L137.248 78.6333L128.075 83.9744Z" fill="#F8F7F6"/>
<path d="M128.075 83.9741V85.3676L120.693 81.0668V79.6733L128.075 83.9741Z" fill="#EAEAE9"/>
<path d="M128.075 85.368L120.905 81.1914V81.4981L128.075 85.6746V85.368Z" fill="#E0E0DF"/>
<path d="M137.248 78.6333L128.075 83.9744V85.3679L137.248 80.0229V78.6333Z" fill="#E0E0DF"/>
<path d="M128.075 85.3677L137.036 80.147V80.4536L128.075 85.6744V85.3677Z" fill="#D8D9D9"/>
<path d="M125.712 84.8203L123.264 83.3957C123.16 83.3336 123.072 83.3841 123.072 83.5083V84.9678C123.072 85.092 123.156 85.2395 123.264 85.3016L125.712 86.7261C125.816 86.7882 125.904 86.7378 125.904 86.6136V85.1541C125.904 85.0299 125.82 84.8824 125.712 84.8203Z" fill="#E5E5E4"/>
<path d="M125.558 84.9875L123.422 83.7454C123.353 83.7027 123.295 83.7376 123.295 83.8191V84.9137C123.295 84.9952 123.353 85.0962 123.422 85.135L125.558 86.3771C125.627 86.4159 125.685 86.3848 125.685 86.3033V85.2087C125.685 85.1272 125.627 85.0263 125.558 84.9875Z" fill="#808285"/>
<path d="M128.075 83.2755V77.7093L120.905 73.5327V79.0989L128.075 83.2755Z" fill="#A7A9AC"/>
<path d="M128.075 77.7095L137.036 72.4888V78.055L128.075 83.2757V77.7095Z" fill="#E0E0DF"/>
<path d="M128.075 77.7092L120.693 73.4084L129.865 68.0635L137.248 72.3643L128.075 77.7092Z" fill="#F0EFEE"/>
<path d="M128.075 77.7095V79.0991L120.693 74.8022V73.4087L128.075 77.7095Z" fill="#EAEAE9"/>
<path d="M128.075 79.099L120.905 74.9263V75.2329L128.075 79.4056V79.099Z" fill="#E0E0DF"/>
<path d="M137.248 72.3643L128.075 77.7092V79.0988L137.248 73.7578V72.3643Z" fill="#E0E0DF"/>
<path d="M128.075 79.0992L137.036 73.8823V74.189L128.075 79.4058V79.0992Z" fill="#D8D9D9"/>
<path d="M125.712 78.5556L123.264 77.1311C123.16 77.069 123.072 77.1194 123.072 77.2436V78.7031C123.072 78.8273 123.156 78.9748 123.264 79.0369L125.712 80.4615C125.816 80.5236 125.904 80.4731 125.904 80.3489V78.8894C125.904 78.7652 125.82 78.6177 125.712 78.5556Z" fill="#E5E5E4"/>
<path d="M125.558 78.7184L123.422 77.4763C123.353 77.4336 123.295 77.4686 123.295 77.5501V78.6447C123.295 78.7262 123.353 78.8271 123.422 78.8659L125.558 80.108C125.627 80.1507 125.685 80.1158 125.685 80.0343V78.9397C125.685 78.8582 125.627 78.7572 125.558 78.7184Z" fill="#808285"/>
<path d="M121.289 79.3239L128.075 83.2754L136.651 78.2798L136.859 78.404L128.075 83.5044L121.078 79.4481L121.289 79.3239Z" fill="#D8D9D9"/>
<mask id="mask0_343_9" style="mask-type:luminance" maskUnits="userSpaceOnUse" x="121" y="79" width="14" height="5">
<path d="M128.075 83.5047L121.078 79.4484L121.289 79.3242L128.075 83.2757L134.095 79.7667L134.088 79.8094L134.041 80.0384L128.075 83.5047Z" fill="white"/>
</mask>
<g mask="url(#mask0_343_9)">
<path d="M134.091 79.3242H121.078V83.5008H134.091V79.3242Z" fill="#D8D9D9"/>
</g>
<path d="M40.9778 112.084L49.5459 107.097V88.562L40.9778 93.5537V112.084Z" fill="#0B2B34"/>
<path d="M40.9777 93.5538L28.7336 86.4233V104.958L40.9777 112.085V93.5538Z" fill="#25434C"/>
<path d="M28.7336 86.4234L40.9777 93.5539L49.5458 88.5621L37.3056 81.4355L28.7336 86.4234Z" fill="#345863"/>
<path d="M39.977 102.952L30.1849 97.2495V104.112L29.9578 104.244L39.7538 109.946L39.977 109.818V102.952Z" fill="#0B2B34"/>
<path d="M39.7538 103.083L29.9578 97.3813V104.244L39.7538 109.946V103.083Z" fill="#345863"/>
<path d="M35.9123 102.012L34.2456 101.041C34.0301 100.917 33.853 100.972 33.853 101.17C33.853 101.368 34.0301 101.628 34.2456 101.756L35.9123 102.726C36.1279 102.854 36.3049 102.796 36.3049 102.598C36.3049 102.4 36.1279 102.14 35.9123 102.012Z" fill="#0B2B34"/>
<path d="M39.977 94.664L30.1849 88.9619V95.8284L29.9578 95.9604L39.7538 101.662L39.977 101.53V94.664Z" fill="#0B2B34"/>
<path d="M39.7538 94.7963L29.9578 89.0942V95.9608L39.7538 101.663V94.7963Z" fill="#345863"/>
<path d="M35.9123 93.7247L34.2456 92.7543C34.0301 92.6301 33.853 92.6845 33.853 92.8824C33.853 93.0804 34.0301 93.3405 34.2456 93.4686L35.9123 94.439C36.1279 94.5632 36.3049 94.5088 36.3049 94.3109C36.3049 94.1129 36.1279 93.8528 35.9123 93.7247Z" fill="#0B2B34"/>
<path d="M184.026 112.085L175.454 107.097V88.5625L184.026 93.5542V112.085Z" fill="#00B2A7"/>
<path d="M184.026 112.085L179.011 109.166L182.194 92.4868L184.026 93.5543V112.085Z" fill="#00AD99"/>
<path d="M184.026 93.5538L196.266 86.4233V104.958L184.026 112.085V93.5538Z" fill="#00B2A7"/>
<path d="M196.266 86.4234L184.026 93.5539L175.454 88.5621L187.698 81.4355L196.266 86.4234Z" fill="#00B2A7"/>
<path d="M184.026 93.5539L182.194 92.4864L183.88 83.6558L187.698 81.4355L196.266 86.4234L184.026 93.5539Z" fill="#4AC1C0"/>
<path d="M185.023 102.952L194.819 97.2495V104.112L195.042 104.244L185.25 109.946L185.023 109.818V102.952Z" fill="#00B2A7"/>
<path d="M185.25 109.946L185.023 109.818V102.952L194.819 97.2495V97.5135L185.25 103.084V109.946Z" fill="#00AFA1"/>
<path d="M185.25 103.083L195.042 97.3813V104.244L185.25 109.946V103.083Z" fill="#00B2A7"/>
<path d="M185.25 109.946V103.079L195.046 97.3774V104.244L185.25 109.946ZM188.695 102.594C188.695 102.722 188.768 102.788 188.876 102.788C188.938 102.788 189.011 102.765 189.088 102.722L190.754 101.752C190.97 101.628 191.147 101.364 191.147 101.166C191.147 101.042 191.074 100.972 190.966 100.972C190.905 100.972 190.831 100.995 190.754 101.038L189.088 102.008C188.872 102.136 188.695 102.396 188.695 102.594Z" fill="#4AC1C0"/>
<path d="M189.088 102.012L190.754 101.041C190.97 100.917 191.147 100.972 191.147 101.17C191.147 101.368 190.97 101.628 190.754 101.756L189.088 102.726C188.872 102.854 188.695 102.796 188.695 102.598C188.695 102.4 188.868 102.14 189.088 102.012Z" fill="#00B2A7"/>
<path d="M188.876 102.792C188.768 102.792 188.695 102.722 188.695 102.598C188.695 102.4 188.868 102.14 189.088 102.012L190.754 101.042C190.831 100.995 190.904 100.976 190.966 100.976C191.074 100.976 191.147 101.045 191.147 101.17C191.147 101.368 190.97 101.628 190.754 101.756L189.088 102.726C189.011 102.773 188.938 102.792 188.876 102.792Z" fill="#00AFA1"/>
<path d="M185.023 94.664L194.819 88.9619V95.8284L195.042 95.9604L185.25 101.662L185.023 101.53V94.664Z" fill="#00B2A7"/>
<path d="M185.25 101.662L185.023 101.53V94.664L194.819 88.9619V89.2259L185.25 94.7959V101.662Z" fill="#00AFA1"/>
<path d="M185.25 94.7963L195.042 89.0942V95.9608L185.25 101.663V94.7963Z" fill="#00B2A7"/>
<path d="M185.25 101.663V94.8002L195.046 89.0981V95.9647L185.25 101.667M188.695 94.3111C188.695 94.4353 188.768 94.5052 188.876 94.5052C188.938 94.5052 189.011 94.4858 189.088 94.4392L190.754 93.4688C190.97 93.3446 191.147 93.0807 191.147 92.8827C191.147 92.7546 191.074 92.6886 190.966 92.6886C190.905 92.6886 190.831 92.708 190.754 92.7546L189.088 93.725C188.872 93.8492 188.695 94.1132 188.695 94.3111Z" fill="#4AC1C0"/>
<path d="M189.088 93.7247L190.754 92.7543C190.97 92.6301 191.147 92.6845 191.147 92.8824C191.147 93.0804 190.97 93.3405 190.754 93.4686L189.088 94.439C188.872 94.5632 188.695 94.5088 188.695 94.3109C188.695 94.1129 188.868 93.8528 189.088 93.7247Z" fill="#00B2A7"/>
<path d="M188.876 94.5051C188.768 94.5051 188.695 94.4352 188.695 94.311C188.695 94.113 188.868 93.853 189.088 93.7249L190.754 92.7545C190.831 92.7079 190.904 92.6885 190.966 92.6885C191.074 92.6885 191.147 92.7583 191.147 92.8826C191.147 93.0805 190.97 93.3406 190.754 93.4687L189.088 94.4391C189.011 94.4857 188.938 94.5051 188.876 94.5051Z" fill="#00AFA1"/>
<path d="M133.51 88.1585L173.583 111.487L176.016 112.904C176.055 112.923 176.093 112.946 176.128 112.966C176.193 112.997 176.262 113.024 176.332 113.047C176.413 113.078 176.501 113.105 176.586 113.117C176.643 113.133 176.697 113.137 176.755 113.144H176.79C176.859 113.16 176.936 113.164 177.005 113.164C177.252 113.164 177.479 113.117 177.648 113.02C178.041 112.787 178.449 112.135 178.56 111.557L185.312 76.1838C185.327 76.1101 185.331 76.0286 185.331 75.9509C185.331 75.8888 185.331 75.8228 185.316 75.7607V75.753C185.3 75.6559 185.281 75.5589 185.25 75.4657C185.219 75.3687 185.177 75.2755 185.131 75.1902C185.104 75.1319 185.069 75.0776 185.031 75.0232C184.988 74.9611 184.942 74.9068 184.892 74.8525C184.85 74.802 184.8 74.7554 184.75 74.7166C184.7 74.6739 184.646 74.639 184.592 74.6079L142.086 49.8628C142.051 49.8395 142.013 49.8201 141.974 49.8007C141.936 49.7813 141.898 49.7619 141.855 49.7464L141.797 49.7269C141.744 49.7114 141.693 49.7037 141.643 49.7075C141.382 49.7269 141.155 49.9094 140.889 50.0646C140.385 50.3635 139.946 50.6236 139.946 50.6236C139.877 50.6546 139.811 50.7012 139.757 50.7633C139.684 50.841 139.623 50.9419 139.584 51.0583C139.569 51.1088 139.557 51.1592 139.546 51.2058L132.794 86.5826C132.687 87.161 133.006 87.8674 133.51 88.1624" fill="#00B2A7"/>
<path d="M133.51 88.1585L173.583 111.487L176.016 112.904C176.055 112.923 176.093 112.946 176.128 112.966C176.193 112.997 176.262 113.024 176.332 113.047C176.413 113.078 176.501 113.105 176.586 113.117C176.643 113.133 176.697 113.137 176.755 113.144H176.79C176.859 113.16 176.936 113.164 177.005 113.164C177.252 113.164 177.479 113.117 177.648 113.02C178.041 112.787 178.449 112.135 178.56 111.557L185.312 76.1838C185.327 76.1101 185.331 76.0286 185.331 75.9509C185.331 75.8888 185.331 75.8228 185.316 75.7607V75.753C185.3 75.6559 185.281 75.5589 185.25 75.4657C185.219 75.3687 185.177 75.2755 185.131 75.1902C185.104 75.1319 185.069 75.0776 185.031 75.0232C184.988 74.9611 184.942 74.9068 184.892 74.8525C184.85 74.802 184.8 74.7554 184.75 74.7166C184.7 74.6739 184.646 74.639 184.592 74.6079L142.086 49.8628C142.051 49.8395 142.013 49.8201 141.974 49.8007C141.936 49.7813 141.898 49.7619 141.855 49.7464L141.797 49.7269C141.744 49.7114 141.693 49.7037 141.643 49.7075C141.382 49.7269 141.155 49.9094 140.889 50.0646C140.385 50.3635 139.946 50.6236 139.946 50.6236C139.877 50.6546 139.811 50.7012 139.757 50.7633C139.684 50.841 139.623 50.9419 139.584 51.0583C139.569 51.1088 139.557 51.1592 139.546 51.2058L132.794 86.5826C132.687 87.161 133.006 87.8674 133.51 88.1624" fill="#00B2A7"/>
<path d="M176.128 112.962C176.624 113.203 177.275 113.234 177.644 113.02C178.037 112.787 178.445 112.135 178.556 111.557L185.308 76.1841C185.366 75.8619 185.292 75.4971 185.127 75.1865L183.699 76.0172C183.864 76.3277 183.938 76.6926 183.88 77.0148L177.128 112.392C177.025 112.923 176.593 113.164 176.128 112.962Z" fill="#0B2B34"/>
<path d="M140.893 50.0685C140.389 50.3674 139.95 50.6275 139.95 50.6275C140.154 50.5304 140.408 50.546 140.662 50.6935L183.164 75.4386C183.387 75.5667 183.568 75.7763 183.699 76.0169L185.127 75.1863C185.1 75.128 185.065 75.0737 185.027 75.0194C184.985 74.9573 184.938 74.9029 184.888 74.8486C184.8 74.7515 184.696 74.6661 184.588 74.604L142.082 49.8589C142.009 49.8162 141.932 49.7774 141.851 49.7464L141.794 49.7269C141.74 49.7114 141.69 49.7037 141.64 49.7075C141.378 49.7269 141.151 49.9094 140.885 50.0646" fill="#25434C"/>
<path d="M183.699 76.0134C183.599 75.8232 183.464 75.6563 183.303 75.5321C183.26 75.4971 183.214 75.4661 183.168 75.4389L154.065 58.4958V56.8306L184.596 74.6082C184.704 74.6703 184.808 74.7557 184.896 74.8528C184.946 74.9071 184.992 74.9615 185.035 75.0236C185.069 75.0779 185.104 75.1322 185.135 75.1905L183.707 76.0211" fill="#2C4F58"/>
<path d="M177.129 112.391L183.88 77.0147C183.992 76.4364 183.668 75.7299 183.164 75.4349L140.662 50.6898C140.158 50.3948 139.657 50.6238 139.546 51.2022L132.794 86.5789C132.683 87.1573 133.002 87.8637 133.51 88.1587L176.012 112.904C176.517 113.199 177.017 112.97 177.125 112.391" fill="#00B2A7"/>
<path d="M177.129 112.391L183.88 77.0147C183.992 76.4364 183.668 75.7299 183.164 75.4349L140.662 50.6898C140.158 50.3948 139.657 50.6238 139.546 51.2022L132.794 86.5789C132.683 87.1573 133.002 87.8637 133.51 88.1587L176.012 112.904C176.517 113.199 177.017 112.97 177.125 112.391" fill="#25434C"/>
<path d="M176.447 113.032C176.309 113.032 176.162 112.989 176.012 112.904L133.51 88.1587C133.072 87.9025 132.775 87.3397 132.775 86.8156C132.775 86.7341 132.783 86.6565 132.798 86.5789L136.066 69.4494L146.336 75.4271L145.254 81.1019L144.396 85.5891C144.392 85.6085 144.388 85.6318 144.384 85.655C144.338 86.0587 144.565 86.5245 144.908 86.7264L175.485 104.527C175.508 104.539 175.531 104.551 175.55 104.562L175.566 104.57C175.612 104.593 175.662 104.613 175.712 104.628C175.77 104.652 175.835 104.671 175.893 104.679C175.935 104.69 175.974 104.694 176.016 104.698H176.043C176.093 104.71 176.147 104.71 176.197 104.71H176.212C176.382 104.71 176.54 104.675 176.655 104.609C176.94 104.442 177.232 103.972 177.309 103.557L182.167 78.1092C182.179 78.0549 182.182 77.9967 182.182 77.9423C182.182 77.8958 182.182 77.8492 182.171 77.8065C182.159 77.7327 182.144 77.659 182.121 77.593C182.098 77.5231 182.067 77.4571 182.036 77.395C182.017 77.3523 181.99 77.3135 181.967 77.2747C181.936 77.232 181.901 77.1893 181.867 77.1505C181.836 77.1155 181.801 77.0806 181.767 77.0534C181.74 77.0302 181.713 77.0107 181.686 76.9952C181.674 76.9875 181.667 76.9836 181.655 76.9758L154.061 60.9099V58.4917L183.164 75.4348C183.603 75.691 183.903 76.2538 183.903 76.7779C183.903 76.8438 183.899 76.9098 183.888 76.9758C183.888 76.9875 183.888 76.9991 183.88 77.0107L182.259 85.5075L177.128 112.388C177.082 112.632 176.967 112.815 176.809 112.919C176.705 112.989 176.582 113.028 176.447 113.028" fill="#18373F"/>
<path d="M144.908 86.7301L173.734 103.514L175.485 104.535L175.566 104.578C175.612 104.601 175.662 104.62 175.712 104.636C175.77 104.659 175.835 104.679 175.893 104.686C175.935 104.698 175.974 104.702 176.016 104.706H176.043C176.093 104.717 176.147 104.717 176.197 104.717C176.374 104.717 176.536 104.682 176.659 104.616C176.944 104.449 177.236 103.98 177.313 103.564L182.171 78.1168C182.182 78.0625 182.186 78.0042 182.186 77.9499C182.186 77.9033 182.186 77.8567 182.175 77.8141C182.163 77.7403 182.148 77.6665 182.125 77.6006C182.102 77.5307 182.071 77.4647 182.04 77.4026C182.021 77.3599 181.994 77.3211 181.971 77.2823C181.94 77.2396 181.905 77.1969 181.871 77.1581C181.84 77.1231 181.805 77.0882 181.77 77.061C181.736 77.03 181.694 77.0067 181.655 76.9834L151.078 59.1824L150.997 59.1397L150.912 59.1009L150.874 59.0893C150.835 59.0776 150.797 59.0737 150.762 59.0776C150.573 59.0932 150.412 59.2251 150.219 59.3338C149.857 59.5473 149.542 59.7336 149.542 59.7336C149.492 59.7569 149.446 59.7918 149.403 59.8345C149.349 59.8889 149.307 59.9626 149.28 60.0441C149.269 60.0791 149.261 60.1179 149.253 60.1489L144.396 85.5966C144.319 86.012 144.546 86.5204 144.911 86.7339" fill="#00B2A7"/>
<path d="M144.908 86.7301L173.734 103.514L175.485 104.535L175.566 104.578C175.612 104.601 175.662 104.62 175.712 104.636C175.77 104.659 175.835 104.679 175.893 104.686C175.935 104.698 175.974 104.702 176.016 104.706H176.043C176.093 104.717 176.147 104.717 176.197 104.717C176.374 104.717 176.536 104.682 176.659 104.616C176.944 104.449 177.236 103.98 177.313 103.564L182.171 78.1168C182.182 78.0625 182.186 78.0042 182.186 77.9499C182.186 77.9033 182.186 77.8567 182.175 77.8141C182.163 77.7403 182.148 77.6665 182.125 77.6006C182.102 77.5307 182.071 77.4647 182.04 77.4026C182.021 77.3599 181.994 77.3211 181.971 77.2823C181.94 77.2396 181.905 77.1969 181.871 77.1581C181.84 77.1231 181.805 77.0882 181.77 77.061C181.736 77.03 181.694 77.0067 181.655 76.9834L151.078 59.1824L150.997 59.1397L150.912 59.1009L150.874 59.0893C150.835 59.0776 150.797 59.0737 150.762 59.0776C150.573 59.0932 150.412 59.2251 150.219 59.3338C149.857 59.5473 149.542 59.7336 149.542 59.7336C149.492 59.7569 149.446 59.7918 149.403 59.8345C149.349 59.8889 149.307 59.9626 149.28 60.0441C149.269 60.0791 149.261 60.1179 149.253 60.1489L144.396 85.5966C144.319 86.012 144.546 86.5204 144.911 86.7339" fill="#00B2A7"/>
<path d="M175.566 104.574C175.924 104.749 176.393 104.768 176.659 104.617C176.944 104.45 177.236 103.98 177.313 103.565L182.171 78.117C182.213 77.8841 182.159 77.6202 182.04 77.3989L181.012 77.9967C181.132 78.2179 181.186 78.4819 181.143 78.7148L176.286 104.166C176.213 104.551 175.901 104.721 175.566 104.578V104.574Z" fill="#D8D9D9"/>
<path d="M150.219 59.326C149.858 59.5395 149.542 59.7258 149.542 59.7258C149.688 59.6559 149.873 59.6676 150.054 59.7763L180.631 77.5772C180.789 77.6704 180.924 77.8179 181.016 77.9926L182.044 77.3948C182.025 77.3521 181.998 77.3133 181.975 77.2745C181.944 77.2318 181.909 77.1891 181.875 77.1502C181.813 77.0804 181.736 77.0183 181.659 76.9756L151.082 59.1746C151.028 59.1436 150.974 59.1164 150.916 59.0931L150.878 59.0815C150.839 59.0698 150.801 59.0659 150.766 59.0698C150.577 59.0853 150.416 59.2173 150.223 59.326" fill="#F8F7F6"/>
<path d="M176.286 104.162L181.143 78.7147C181.224 78.2993 180.993 77.7908 180.627 77.5812L150.05 59.7803C149.688 59.5707 149.326 59.7337 149.249 60.149L144.392 85.5967C144.311 86.012 144.542 86.5205 144.908 86.734L175.485 104.535C175.851 104.745 176.209 104.582 176.286 104.166" fill="#F0EFEE"/>
<path d="M153.668 79.2465C153.884 79.1223 154.057 78.804 154.057 78.5362V32.256C154.057 31.9882 153.872 31.6621 153.641 31.5301L124.819 14.75C124.588 14.6181 124.226 14.6103 124.015 14.7345C123.799 14.8587 123.626 15.177 123.626 15.4448V61.725C123.626 61.9928 123.811 62.3189 124.042 62.4509L152.864 79.2309C153.095 79.3668 153.453 79.3707 153.668 79.2465Z" fill="#E5E5E4"/>
<path d="M123.63 15.3672C123.664 15.1537 123.834 15.08 124.042 15.2003L152.864 31.9804C152.979 32.0464 153.087 32.1667 153.156 32.2948L153.938 31.8407C153.865 31.7087 153.757 31.5923 153.641 31.5263L124.823 14.7462C124.592 14.6103 124.23 14.6025 124.015 14.7268C123.822 14.8432 123.657 15.1149 123.626 15.3672H123.63Z" fill="#F8F7F6"/>
<path d="M152.921 79.2583C153.148 79.3631 153.472 79.3592 153.672 79.2428C153.888 79.1185 154.061 78.8003 154.061 78.5324V32.2523C154.061 32.1164 154.015 31.9728 153.941 31.8408L153.16 32.295C153.237 32.4269 153.283 32.5706 153.283 32.7064V78.9866C153.283 79.2311 153.125 79.3437 152.925 79.2583H152.921Z" fill="#D8D9D9"/>
<path d="M152.864 79.2309L124.042 62.4507C123.811 62.3188 123.626 61.9927 123.626 61.7249V15.4408C123.626 15.173 123.811 15.0643 124.042 15.2002L152.864 31.9803C153.095 32.1123 153.28 32.4383 153.28 32.7061V78.9863C153.28 79.2541 153.095 79.3628 152.864 79.227" fill="#F0EFEE"/>
<path d="M150.847 53.4146C150.735 53.4146 150.608 53.3758 150.466 53.2943L126.436 39.305C126.047 39.076 125.728 38.6063 125.728 38.2492C125.728 38.0202 125.858 37.896 126.055 37.896C126.166 37.896 126.297 37.9348 126.436 38.0163L150.466 52.0056C150.858 52.2346 151.174 52.7043 151.174 53.0614C151.174 53.2904 151.043 53.4146 150.847 53.4146Z" fill="#B3BFC2"/>
<path d="M150.847 57.2808C150.735 57.2808 150.608 57.242 150.466 57.1605L126.436 43.1712C126.047 42.9422 125.728 42.4725 125.728 42.1154C125.728 41.8864 125.858 41.7622 126.055 41.7622C126.166 41.7622 126.293 41.801 126.436 41.8825L150.466 55.8718C150.858 56.1008 151.174 56.5705 151.174 56.9276C151.174 57.1566 151.043 57.2808 150.847 57.2808Z" fill="#B3BFC2"/>
<path d="M150.847 61.1426C150.735 61.1426 150.608 61.1038 150.466 61.0223L126.436 47.033C126.047 46.804 125.728 46.3344 125.728 45.9772C125.728 45.7482 125.858 45.624 126.055 45.624C126.166 45.624 126.297 45.6628 126.436 45.7444L150.466 59.7336C150.858 59.9626 151.174 60.4323 151.174 60.7894C151.174 61.0184 151.043 61.1426 150.847 61.1426Z" fill="#B3BFC2"/>
<path d="M150.847 65.0088C150.735 65.0088 150.608 64.97 150.466 64.8885L126.436 50.8993C126.047 50.6702 125.728 50.2006 125.728 49.8435C125.728 49.6144 125.858 49.4902 126.055 49.4902C126.166 49.4902 126.293 49.529 126.436 49.6106L150.466 63.5998C150.858 63.8288 151.174 64.2985 151.174 64.6556C151.174 64.8846 151.043 65.0088 150.847 65.0088Z" fill="#B3BFC2"/>
<path d="M150.847 68.875C150.735 68.875 150.608 68.8362 150.466 68.7547L126.436 54.7655C126.047 54.5364 125.728 54.0668 125.728 53.7097C125.728 53.4807 125.858 53.3564 126.055 53.3564C126.166 53.3564 126.297 53.3953 126.436 53.4768L150.466 67.466C150.858 67.695 151.174 68.1647 151.174 68.5218C151.174 68.7508 151.043 68.875 150.847 68.875Z" fill="#B3BFC2"/>
<path d="M150.847 72.7368C150.735 72.7368 150.608 72.698 150.466 72.6165L126.436 58.6273C126.047 58.3983 125.728 57.9286 125.728 57.5715C125.728 57.3425 125.858 57.2183 126.055 57.2183C126.166 57.2183 126.297 57.2571 126.436 57.3386L150.466 71.3278C150.858 71.5568 151.174 72.0304 151.174 72.3836C151.174 72.6126 151.043 72.7368 150.847 72.7368Z" fill="#B3BFC2"/>
<path d="M131.79 54.4975C131.79 54.2025 131.89 53.9968 132.052 53.892C132.052 53.892 132.075 53.8726 132.121 53.8532L133.499 53.0419C133.672 52.9449 133.907 52.9604 134.169 53.1118L161.717 69.1311L162.517 65.8706C162.59 65.6222 162.737 65.4475 162.918 65.3388H162.914L164.349 64.4965V64.5043C164.596 64.3568 164.915 64.349 165.219 64.5276L176.94 71.3475C177.467 71.6542 177.895 72.3994 177.895 73.0127V112.422C177.895 112.717 177.798 112.927 177.637 113.032L176.162 113.894C175.993 113.979 175.766 113.96 175.512 113.812L132.729 88.9039C132.202 88.5973 131.774 87.852 131.774 87.2387L131.79 54.5014V54.4975Z" fill="#00B2A7"/>
<path d="M162.941 65.3193C163.187 65.1835 163.495 65.1873 163.795 65.3581L175.516 72.1781C175.774 72.3333 176.012 72.5973 176.189 72.8962L177.617 72.0577C177.444 71.755 177.209 71.491 176.944 71.3397L165.223 64.5197C164.915 64.3412 164.6 64.3528 164.353 64.4964L162.945 65.3193H162.941Z" fill="#345863"/>
<path d="M132.121 53.8533C132.286 53.7835 132.51 53.8106 132.744 53.9465L160.319 69.9891C160.847 70.2957 161.416 70.0706 161.59 69.4767L161.717 69.1274L134.169 53.1081C134.018 53.0188 133.872 52.98 133.745 52.98C133.653 52.98 133.568 53.0033 133.499 53.0421H133.495L132.117 53.8533H132.121Z" fill="#345863"/>
<path d="M131.794 54.5014L131.778 87.2387C131.778 87.852 132.206 88.5972 132.733 88.9039L175.627 113.878C176.001 114.095 176.47 113.824 176.47 113.389V73.8511C176.47 73.5444 176.366 73.2067 176.193 72.9079C176.016 72.6051 175.778 72.345 175.52 72.1898L163.799 65.3659C163.499 65.1951 163.191 65.1874 162.945 65.3271L162.922 65.3426H162.929C162.748 65.4474 162.606 65.626 162.533 65.8744L161.728 69.135L161.601 69.4843C161.424 70.0743 160.858 70.2994 160.331 69.9967L132.756 53.9541C132.521 53.8143 132.298 53.791 132.132 53.8609L132.094 53.8803L132.075 53.892L132.063 53.8997C131.905 54.0045 131.801 54.2141 131.801 54.5091L131.794 54.5014Z" fill="#25434C"/>
<path d="M149.207 85.6202C149.311 85.5698 149.423 85.5465 149.534 85.5465C149.819 85.5465 150.096 85.7095 150.223 85.989L152.39 90.6158V82.4102C152.39 81.9832 152.733 81.6416 153.152 81.6416C153.572 81.6416 153.915 81.9871 153.915 82.4102V92.2383L156.243 89.9792C156.547 89.6842 157.028 89.6959 157.321 89.9987C157.614 90.3053 157.606 90.7944 157.302 91.0894L153.68 94.6022C153.503 94.773 153.256 94.8506 153.01 94.8041C152.767 94.7575 152.563 94.5983 152.46 94.3771L148.838 86.645C148.657 86.2607 148.822 85.7988 149.203 85.6202H149.207Z" fill="#00B2A7"/>
<path d="M158.357 87.3745C157.933 87.3745 157.594 87.029 157.594 86.6059V81.9597L148.718 76.7933V80.5507C148.718 80.9776 148.376 81.3192 147.956 81.3192C147.537 81.3192 147.194 80.9737 147.194 80.5507V75.4619C147.194 75.1863 147.34 74.934 147.575 74.7943C147.694 74.7244 147.825 74.6895 147.956 74.6895C148.087 74.6895 148.218 74.7244 148.337 74.7943L158.738 80.8495C158.976 80.9854 159.119 81.2416 159.119 81.5172V86.6059C159.119 87.029 158.776 87.3745 158.357 87.3745Z" fill="#00B2A7"/>
<path d="M176.12 113.905L176.162 113.89L177.637 113.028C177.794 112.923 177.895 112.713 177.895 112.418V73.0087C177.895 72.6981 177.787 72.3643 177.614 72.0654L176.186 72.9039C176.359 73.2066 176.463 73.5443 176.463 73.851V113.385C176.463 113.629 176.316 113.827 176.116 113.905H176.12Z" fill="#0B2B34"/>
<path d="M91.4935 88.1585L51.4243 111.487L48.9916 112.904C48.9531 112.923 48.9146 112.946 48.88 112.966C48.8146 112.997 48.7453 113.024 48.676 113.047C48.5952 113.078 48.5066 113.105 48.4219 113.117C48.3642 113.133 48.3103 113.137 48.2526 113.144H48.2179C48.1487 113.16 48.0717 113.164 48.0024 113.164C47.756 113.164 47.529 113.117 47.3634 113.02C46.9708 112.787 46.559 112.135 46.4512 111.557L39.6999 76.1838C39.6845 76.1101 39.6768 76.0286 39.6768 75.9509C39.6768 75.8888 39.6768 75.8228 39.6922 75.7607V75.753C39.7076 75.6559 39.7268 75.5589 39.7576 75.4657C39.7884 75.3687 39.8307 75.2755 39.8769 75.1902C39.9039 75.1319 39.9385 75.0776 39.977 75.0232C40.0193 74.9611 40.0655 74.9068 40.1156 74.8525C40.1579 74.802 40.2079 74.7554 40.258 74.7166C40.308 74.6739 40.3619 74.639 40.4158 74.6079L82.9177 49.8628C82.9524 49.8395 82.9908 49.8201 83.0293 49.8007C83.0678 49.7813 83.1063 49.7619 83.1487 49.7464L83.2064 49.7269C83.2603 49.7114 83.3103 49.7037 83.3604 49.7075C83.626 49.7269 83.8492 49.9094 84.1148 50.0646C84.619 50.3635 85.0578 50.6236 85.0578 50.6236C85.1271 50.6546 85.1925 50.7012 85.2464 50.7633C85.3196 50.841 85.3811 50.9419 85.4196 51.0583C85.4389 51.1088 85.4466 51.1592 85.4581 51.2058L92.2095 86.5826C92.3172 87.161 91.9978 87.8674 91.4935 88.1624" fill="#00B2A7"/>
<path d="M91.4935 88.1585L51.4243 111.487L48.9916 112.904C48.9531 112.923 48.9146 112.946 48.88 112.966C48.8146 112.997 48.7453 113.024 48.676 113.047C48.5952 113.078 48.5066 113.105 48.4219 113.117C48.3642 113.133 48.3103 113.137 48.2526 113.144H48.2179C48.1487 113.16 48.0717 113.164 48.0024 113.164C47.756 113.164 47.529 113.117 47.3634 113.02C46.9708 112.787 46.559 112.135 46.4512 111.557L39.6999 76.1838C39.6845 76.1101 39.6768 76.0286 39.6768 75.9509C39.6768 75.8888 39.6768 75.8228 39.6922 75.7607V75.753C39.7076 75.6559 39.7268 75.5589 39.7576 75.4657C39.7884 75.3687 39.8307 75.2755 39.8769 75.1902C39.9039 75.1319 39.9385 75.0776 39.977 75.0232C40.0193 74.9611 40.0655 74.9068 40.1156 74.8525C40.1579 74.802 40.2079 74.7554 40.258 74.7166C40.308 74.6739 40.3619 74.639 40.4158 74.6079L82.9177 49.8628C82.9524 49.8395 82.9908 49.8201 83.0293 49.8007C83.0678 49.7813 83.1063 49.7619 83.1487 49.7464L83.2064 49.7269C83.2603 49.7114 83.3103 49.7037 83.3604 49.7075C83.626 49.7269 83.8492 49.9094 84.1148 50.0646C84.619 50.3635 85.0578 50.6236 85.0578 50.6236C85.1271 50.6546 85.1925 50.7012 85.2464 50.7633C85.3196 50.841 85.3811 50.9419 85.4196 51.0583C85.4389 51.1088 85.4466 51.1592 85.4581 51.2058L92.2095 86.5826C92.3172 87.161 91.9978 87.8674 91.4935 88.1624" fill="#00B2A7"/>
<path d="M47.3403 113.009C46.9516 112.768 46.5513 112.128 46.4473 111.557L42.8061 92.4867L41.1202 83.6561L39.6921 76.1802C39.669 76.0443 39.6652 75.9046 39.6844 75.761C39.6844 75.761 39.6844 75.7571 39.6844 75.7532C39.7037 75.6096 39.7422 75.4699 39.7961 75.3379C39.8192 75.2874 39.8423 75.2331 39.8692 75.1826L41.2972 76.0133C41.1702 76.2501 41.0971 76.5179 41.0971 76.7779C41.0971 76.8478 41.1009 76.9177 41.1125 76.9837C41.1125 76.9914 41.1125 77.0031 41.1163 77.0108L42.3904 83.6949L47.0978 108.37V112.415C47.0978 112.609 47.1402 112.768 47.2172 112.884C47.2172 112.888 47.221 112.892 47.2249 112.896C47.2557 112.939 47.2903 112.978 47.3288 113.009" fill="#00AD99"/>
<path d="M40.3657 74.6273C40.3657 74.6273 40.3927 74.6117 40.4081 74.6001C40.3927 74.6079 40.3811 74.6156 40.3657 74.6273Z" fill="white"/>
<path d="M41.3011 76.0172L39.873 75.1865C39.9 75.1283 39.9346 75.074 39.9731 75.0196C40.0155 74.9575 40.0617 74.9032 40.1117 74.8488C40.1887 74.7673 40.2772 74.6897 40.3696 74.6276C40.385 74.6198 40.3965 74.6121 40.4119 74.6004L70.9431 56.8228V58.488L60.6429 64.485C60.5236 64.419 60.3927 64.3802 60.2541 64.3802C60.154 64.3802 60.0501 64.3996 59.9462 64.4384C59.8923 64.4578 59.8384 64.485 59.7845 64.5161L48.064 71.336C47.8446 71.4602 47.6444 71.6659 47.4827 71.9066C47.4058 72.0192 47.3403 72.1395 47.2826 72.2637L41.8399 75.435C41.8169 75.4466 41.7976 75.4621 41.7745 75.4738C41.7245 75.5087 41.6744 75.5475 41.6282 75.5902C41.4974 75.7067 41.3896 75.8542 41.3011 76.0133" fill="#00B4AD"/>
<path d="M47.8752 112.391L41.1239 77.0147C41.0122 76.4364 41.3356 75.7299 41.8398 75.4349L84.3417 50.6898C84.846 50.3948 85.3463 50.6238 85.458 51.2022L92.2093 86.5789C92.3209 87.1573 91.9976 87.8637 91.4934 88.1587L48.9915 112.904C48.4872 113.199 47.9868 112.97 47.8791 112.391" fill="#00B2A7"/>
<path d="M47.1094 108.374L41.124 77.0147C41.124 77.0147 41.124 76.9953 41.1201 76.9875C41.1086 76.9215 41.1047 76.8517 41.1047 76.7818C41.1047 76.2578 41.405 75.6949 41.8399 75.4388L47.2826 72.2675C47.221 72.4034 47.1748 72.5431 47.144 72.6828C47.1209 72.7915 47.1055 72.9002 47.1055 73.0089V74.7905L43.3411 76.9836C43.3411 76.9836 43.3218 76.9953 43.3103 77.003C43.2833 77.0224 43.2525 77.0418 43.2256 77.0651C43.191 77.0923 43.1563 77.1272 43.1255 77.1622C43.0909 77.201 43.0562 77.2398 43.0254 77.2864C42.9985 77.3252 42.9754 77.364 42.9562 77.4067C42.9369 77.4417 42.9215 77.4766 42.9061 77.5154C42.8946 77.5465 42.883 77.5736 42.8715 77.6086C42.8484 77.6746 42.833 77.7483 42.8214 77.8143V77.8221C42.8137 77.8686 42.8137 77.9113 42.8137 77.9579C42.8137 78.0161 42.8176 78.0744 42.8291 78.1248L47.1055 100.533V108.386M62.4712 65.8435C62.398 65.6106 62.2556 65.4398 62.0824 65.335L60.6467 64.4966C60.6467 64.4966 60.639 64.4966 60.6351 64.4966L70.9354 58.4995V60.9177L62.4673 65.8474" fill="#00AE9D"/>
<path d="M80.0963 86.7301L51.2703 103.514L49.5189 104.535L49.4381 104.578C49.3919 104.601 49.3419 104.62 49.2918 104.636C49.2341 104.659 49.1687 104.679 49.1109 104.686C49.0724 104.698 49.0301 104.702 48.9878 104.706H48.9608C48.9108 104.717 48.8569 104.717 48.8069 104.717C48.6298 104.717 48.4681 104.682 48.345 104.616C48.0601 104.449 47.7676 103.98 47.6906 103.564L42.833 78.1168C42.8215 78.0625 42.8176 78.0042 42.8176 77.9499C42.8176 77.9033 42.8176 77.8567 42.8292 77.8141C42.8407 77.7403 42.8561 77.6665 42.8792 77.6006C42.9023 77.5307 42.9331 77.4647 42.9639 77.4026C42.9831 77.3599 43.0101 77.3211 43.0332 77.2823C43.064 77.2396 43.0948 77.1969 43.1333 77.1581C43.164 77.1231 43.1987 77.0882 43.2333 77.061C43.268 77.03 43.3103 77.0067 43.3488 76.9834L73.9262 59.1824L74.007 59.1397L74.0917 59.1009L74.134 59.0893C74.1725 59.0776 74.211 59.0737 74.2456 59.0776C74.4343 59.0932 74.5959 59.2251 74.7884 59.3338C75.1502 59.5473 75.4658 59.7336 75.4658 59.7336C75.5159 59.7569 75.562 59.7918 75.6005 59.8345C75.6544 59.8889 75.6968 59.9626 75.7237 60.0441C75.7353 60.0791 75.743 60.1179 75.7507 60.1489L80.6082 85.5966C80.6852 86.012 80.4543 86.5204 80.0925 86.7339" fill="#00B2A7"/>
<path d="M80.0963 86.7301L51.2703 103.514L49.5189 104.535L49.4381 104.578C49.3919 104.601 49.3419 104.62 49.2918 104.636C49.2341 104.659 49.1687 104.679 49.1109 104.686C49.0724 104.698 49.0301 104.702 48.9878 104.706H48.9608C48.9108 104.717 48.8569 104.717 48.8069 104.717C48.6298 104.717 48.4681 104.682 48.345 104.616C48.0601 104.449 47.7676 103.98 47.6906 103.564L42.833 78.1168C42.8215 78.0625 42.8176 78.0042 42.8176 77.9499C42.8176 77.9033 42.8176 77.8567 42.8292 77.8141C42.8407 77.7403 42.8561 77.6665 42.8792 77.6006C42.9023 77.5307 42.9331 77.4647 42.9639 77.4026C42.9831 77.3599 43.0101 77.3211 43.0332 77.2823C43.064 77.2396 43.0948 77.1969 43.1333 77.1581C43.164 77.1231 43.1987 77.0882 43.2333 77.061C43.268 77.03 43.3103 77.0067 43.3488 76.9834L73.9262 59.1824L74.007 59.1397L74.0917 59.1009L74.134 59.0893C74.1725 59.0776 74.211 59.0737 74.2456 59.0776C74.4343 59.0932 74.5959 59.2251 74.7884 59.3338C75.1502 59.5473 75.4658 59.7336 75.4658 59.7336C75.5159 59.7569 75.562 59.7918 75.6005 59.8345C75.6544 59.8889 75.6968 59.9626 75.7237 60.0441C75.7353 60.0791 75.743 60.1179 75.7507 60.1489L80.6082 85.5966C80.6852 86.012 80.4543 86.5204 80.0925 86.7339" fill="#00B2A7"/>
<path d="M49.438 104.574C49.08 104.749 48.6143 104.768 48.3449 104.617C48.06 104.45 47.7675 103.98 47.6905 103.565L42.8329 78.117C42.7906 77.8841 42.8445 77.6202 42.9638 77.3989L43.9915 77.9967C43.8722 78.2179 43.8183 78.4819 43.8606 78.7148L48.7182 104.166C48.7914 104.551 49.1031 104.721 49.438 104.578" fill="#D8D9D9"/>
<path d="M74.7844 59.326C75.1463 59.5395 75.4619 59.7258 75.4619 59.7258C75.3156 59.6559 75.1309 59.6676 74.95 59.7763L44.3726 77.5772C44.2148 77.6704 44.0801 77.8179 43.9877 77.9926L42.96 77.3948C42.9792 77.3521 43.0062 77.3133 43.0292 77.2745C43.06 77.2318 43.0908 77.1891 43.1293 77.1502C43.1909 77.0804 43.2679 77.0183 43.3449 76.9756L73.9222 59.1746C73.9761 59.1436 74.03 59.1164 74.0877 59.0931L74.1301 59.0815C74.1686 59.0698 74.2071 59.0659 74.2417 59.0698C74.4303 59.0853 74.592 59.2173 74.7844 59.326Z" fill="#F8F7F6"/>
<path d="M48.7182 104.162L43.8606 78.7147C43.7798 78.2993 44.0107 77.7908 44.3764 77.5812L74.9538 59.7803C75.3156 59.5707 75.6774 59.7337 75.7544 60.149L80.612 85.5967C80.6928 86.012 80.4618 86.5205 80.0962 86.734L49.5188 104.535C49.157 104.745 48.7952 104.582 48.7182 104.166" fill="#F0EFEE"/>
<path d="M71.3316 79.2465C71.1161 79.1223 70.9429 78.804 70.9429 78.5362V32.256C70.9429 31.9882 71.1276 31.6621 71.3586 31.5301L100.181 14.75C100.412 14.6181 100.77 14.6103 100.985 14.7345C101.201 14.8587 101.374 15.177 101.374 15.4448V61.725C101.374 61.9928 101.189 62.3189 100.958 62.4509L72.1361 79.2309C71.9052 79.3668 71.5472 79.3707 71.3316 79.2465Z" fill="#E5E5E4"/>
<path d="M101.37 15.3672C101.336 15.1537 101.166 15.08 100.958 15.2003L72.1362 31.9804C72.0207 32.0464 71.9129 32.1667 71.8436 32.2948L71.0623 31.8407C71.1354 31.7087 71.2432 31.5923 71.3586 31.5263L100.177 14.7462C100.404 14.6103 100.77 14.6025 100.981 14.7268C101.174 14.8432 101.339 15.1149 101.37 15.3672Z" fill="#F8F7F6"/>
<path d="M72.0825 79.2583C71.8554 79.3631 71.532 79.3592 71.3319 79.2428C71.1163 79.1185 70.9431 78.8003 70.9431 78.5324V32.2523C70.9431 32.1164 70.9893 31.9728 71.0624 31.8408L71.8438 32.295C71.7668 32.4269 71.7206 32.5706 71.7206 32.7064V78.9866C71.7206 79.2311 71.8784 79.3437 72.0786 79.2583" fill="#D8D9D9"/>
<path d="M72.1362 79.2309L100.958 62.4507C101.189 62.3188 101.374 61.9927 101.374 61.7249V15.4408C101.374 15.173 101.189 15.0643 100.958 15.2002L72.1362 31.9803C71.9052 32.1123 71.7205 32.4383 71.7205 32.7061V78.9863C71.7205 79.2541 71.9052 79.3628 72.1362 79.227" fill="#F0EFEE"/>
<path d="M74.1531 53.4146C73.9568 53.4146 73.8259 53.2904 73.8259 53.0614C73.8259 52.7043 74.1416 52.2346 74.5342 52.0056L98.5603 38.0163C98.6989 37.9348 98.8298 37.896 98.9414 37.896C99.1377 37.896 99.2686 38.0202 99.2686 38.2492C99.2686 38.6063 98.9529 39.076 98.5603 39.305L74.5342 53.2943C74.3917 53.3758 74.2647 53.4146 74.1531 53.4146Z" fill="#B3BFC2"/>
<path d="M74.1531 57.2808C73.9568 57.2808 73.8259 57.1566 73.8259 56.9276C73.8259 56.5705 74.1416 56.1008 74.5342 55.8718L98.5603 41.8825C98.6989 41.801 98.8298 41.7622 98.9414 41.7622C99.1377 41.7622 99.2686 41.8864 99.2686 42.1154C99.2686 42.4725 98.9529 42.9422 98.5603 43.1712L74.5342 57.1605C74.3917 57.242 74.2647 57.2808 74.1531 57.2808Z" fill="#B3BFC2"/>
<path d="M74.1531 61.1426C73.9568 61.1426 73.8259 61.0184 73.8259 60.7894C73.8259 60.4323 74.1416 59.9626 74.5342 59.7336L98.5603 45.7444C98.6989 45.6628 98.8298 45.624 98.9414 45.624C99.1377 45.624 99.2686 45.7482 99.2686 45.9772C99.2686 46.3344 98.9529 46.804 98.5603 47.033L74.5342 61.0223C74.3917 61.1038 74.2647 61.1426 74.1531 61.1426Z" fill="#B3BFC2"/>
<path d="M93.1138 54.0705C93.0715 53.9929 93.0138 53.9346 92.9483 53.892C92.9483 53.892 92.9252 53.8725 92.879 53.8531L92.0823 53.3835L98.5603 49.6106C98.6989 49.529 98.8298 49.4902 98.9414 49.4902C99.1377 49.4902 99.2686 49.6144 99.2686 49.8435C99.2686 50.2006 98.9529 50.6702 98.5603 50.8993L93.11 54.0705" fill="#B3BFC2"/>
<path d="M93.2141 57.8785V56.5898L98.5644 53.4729C98.703 53.3914 98.8338 53.3525 98.9454 53.3525C99.1417 53.3525 99.2726 53.4768 99.2726 53.7058C99.2726 54.0629 98.957 54.5325 98.5644 54.7616L93.2141 57.8785Z" fill="#B3BFC2"/>
<path d="M93.2141 61.7403V60.4516L98.5605 57.3386C98.6991 57.2571 98.83 57.2183 98.9416 57.2183C99.1379 57.2183 99.2688 57.3425 99.2688 57.5715C99.2688 57.9286 98.9531 58.4021 98.5605 58.6273L93.2141 61.7403Z" fill="#B3BFC2"/>
<path d="M93.2102 54.4975C93.2102 54.2025 93.1101 53.9968 92.9485 53.892C92.9485 53.892 92.9254 53.8726 92.8792 53.8532L91.5012 53.0419C91.328 52.9449 91.0932 52.9604 90.8315 53.1118L63.2834 69.1311L62.4827 65.8706C62.4096 65.6222 62.2633 65.4475 62.0863 65.3388H62.0901L60.6544 64.4965V64.5043C60.4081 64.3568 60.0886 64.349 59.7845 64.5276L48.064 71.3475C47.5366 71.6542 47.1094 72.3994 47.1094 73.0127V112.422C47.1094 112.717 47.2056 112.927 47.3673 113.032L48.8415 113.894C49.0108 113.979 49.2379 113.96 49.492 113.812L92.2749 88.9039C92.8022 88.5973 93.2295 87.852 93.2295 87.2387L93.2141 54.5014" fill="#00B2A7"/>
<path d="M47.4827 71.9101C47.6443 71.6694 47.8445 71.4676 48.0639 71.3395C47.8445 71.4676 47.6443 71.6694 47.4827 71.9062" fill="#5DC5C4"/>
<path d="M60.6542 64.4965H60.6504V64.4927H60.6542V64.4965Z" fill="#46C0BA"/>
<path d="M48.8146 72.9L47.3904 72.0616C47.4212 72.0112 47.452 71.9607 47.4828 71.9102C47.6444 71.6735 47.8446 71.4677 48.064 71.3435L59.7845 64.5236C59.8384 64.4925 59.8923 64.4654 59.9462 64.4459C60.0501 64.4071 60.154 64.3916 60.2503 64.3916C60.3965 64.3916 60.5313 64.4304 60.6544 64.5003L62.0632 65.3232C61.9477 65.2611 61.8207 65.2261 61.686 65.2261C61.532 65.2261 61.3704 65.2688 61.2087 65.362L49.4882 72.1819C49.2803 72.3062 49.084 72.5002 48.9262 72.7292C48.8877 72.7836 48.8492 72.8418 48.8146 72.9Z" fill="#4AC1C0"/>
<path d="M63.2832 69.127L70.9429 64.6709L63.2832 69.127Z" fill="#F6F6F5"/>
<path d="M70.9431 64.6709L71.7206 64.2168V64.2207L70.9431 64.6709Z" fill="#E6E6E5"/>
<path d="M92.8829 53.853L92.0823 53.3833L92.8829 53.853Z" fill="#CFD7D8"/>
<path d="M64.2031 70.1249C63.8452 70.1249 63.5295 69.892 63.4102 69.4767L63.2832 69.1273L70.9429 64.6713L71.7205 64.2171L90.8275 53.1041C90.9352 53.042 91.0392 53.0032 91.1354 52.9838C91.1739 52.976 91.2124 52.9722 91.2509 52.9722C91.3433 52.9722 91.4279 52.9955 91.4972 53.0343H91.5011L92.0823 53.3759L92.879 53.8455C92.8213 53.8222 92.752 53.8067 92.6827 53.8067C92.5519 53.8067 92.4056 53.8494 92.2555 53.9387L64.6804 69.9813C64.5226 70.0744 64.3571 70.1171 64.2031 70.1171" fill="#4AC1C0"/>
<path d="M93.2101 54.5014L93.2255 87.2387C93.2255 87.852 92.7983 88.5972 92.2709 88.9039L49.3764 113.878C49.003 114.095 48.5334 113.824 48.5334 113.389V73.8511C48.5334 73.5444 48.6374 73.2067 48.8106 72.9079C48.9876 72.6051 49.2263 72.345 49.4842 72.1898L61.2047 65.3659C61.505 65.1951 61.8129 65.1874 62.0592 65.3271L62.0823 65.3426H62.0746C62.2555 65.4474 62.398 65.626 62.4711 65.8744L63.2756 69.135L63.4026 69.4843C63.5796 70.0743 64.1455 70.2994 64.6728 69.9967L92.2478 53.9541C92.4826 53.8143 92.7059 53.791 92.8714 53.8609L92.9099 53.8803L92.933 53.892L92.9445 53.8997C93.1024 54.0045 93.2063 54.2141 93.2063 54.5091" fill="#00B2A7"/>
<path d="M67.04 84.731C67.1439 84.7815 67.2517 84.8047 67.3557 84.8047C67.6328 84.8047 67.9022 84.6456 68.0292 84.3739L70.1386 79.8712V87.8596C70.1386 88.2749 70.4696 88.6087 70.8814 88.6087C71.2933 88.6087 71.6243 88.2749 71.6243 87.8596V78.2914L73.8914 80.4923C74.1878 80.7795 74.6574 80.7718 74.9423 80.4729C75.2271 80.174 75.2194 79.7005 74.923 79.4132L71.3972 75.9935C71.224 75.8266 70.9854 75.7529 70.7467 75.7956C70.5119 75.8383 70.3118 75.9935 70.2078 76.2148L66.6821 83.7412C66.505 84.1138 66.6667 84.5641 67.0362 84.7388L67.04 84.731Z" fill="#0B2B34"/>
<path d="M75.9431 82.3828C75.5313 82.3828 75.2003 82.7166 75.2003 83.132V87.654L66.559 92.6845V89.0281C66.559 88.6128 66.228 88.2789 65.8161 88.2789C65.4043 88.2789 65.0732 88.6166 65.0732 89.0281V93.9849C65.0732 94.2527 65.2157 94.5011 65.4428 94.6331C65.5582 94.6991 65.6853 94.734 65.8161 94.734C65.947 94.734 66.074 94.6991 66.1856 94.6331L76.3127 88.737C76.5436 88.6011 76.6822 88.3566 76.6822 88.0887V83.132C76.6822 82.7166 76.3511 82.3828 75.9393 82.3828H75.9431Z" fill="#0B2B34"/>
<path d="M48.849 113.893H48.8413L47.3671 113.028C47.3594 113.024 47.3517 113.016 47.344 113.012C47.344 113.012 47.344 113.012 47.3517 113.012C47.3594 113.016 47.3632 113.02 47.3709 113.024L48.8451 113.886C48.8451 113.886 48.849 113.886 48.8528 113.889" fill="#BEC0C0"/>
<path d="M47.348 113.012C47.348 113.012 47.348 113.012 47.3403 113.012C47.3018 112.981 47.2672 112.947 47.2364 112.9C47.2672 112.947 47.3057 112.985 47.348 113.012ZM47.2287 112.884C47.1517 112.768 47.1094 112.613 47.1094 112.415V108.37V108.378V112.415C47.1094 112.609 47.1517 112.768 47.2287 112.884Z" fill="#009A83"/>
<path d="M47.1094 74.7864V73.0048C47.1094 72.9 47.1209 72.7913 47.1479 72.6787C47.1248 72.7913 47.1132 72.9 47.1132 73.0048V74.7864" fill="#00A68D"/>
<path d="M48.8569 113.893H48.8492C48.8492 113.893 48.8453 113.889 48.8415 113.886L47.3673 113.024C47.3673 113.024 47.3557 113.016 47.348 113.012C47.3057 112.981 47.2672 112.942 47.2364 112.9C47.2364 112.9 47.2325 112.892 47.2287 112.888C47.1517 112.772 47.1094 112.616 47.1094 112.418V108.382V100.529V95.7431V75.9858V74.7864V73.0047C47.1094 72.8999 47.1209 72.7912 47.144 72.6787C47.1902 72.4691 47.2749 72.2556 47.3904 72.0576L48.8145 72.896C48.6413 73.1949 48.5374 73.5365 48.5374 73.8393V113.377C48.5374 113.614 48.6721 113.8 48.8569 113.889" fill="#00AD99"/>
<path d="M48.8146 72.8999L47.3904 72.0615L48.8146 72.8999Z" fill="#06B9AC"/>
<path d="M48.8838 113.905L48.8568 113.897C48.6721 113.808 48.5374 113.622 48.5374 113.385V73.847C48.5374 73.5404 48.6413 73.2027 48.8145 72.9038C48.6413 73.2066 48.5374 73.5481 48.5374 73.8509V113.385C48.5374 113.629 48.6836 113.827 48.8838 113.905Z" fill="#00AD99"/>
<path d="M133.333 104.263V107.221L144.63 119.568V116.611L133.333 104.263Z" fill="#00B2A7"/>
<path d="M144.63 119.568L140.839 115.423L141.062 112.71L144.63 116.611V119.568ZM141.062 112.713L136.678 110.877L133.333 107.221V104.263L141.062 112.713Z" fill="#00AE9D"/>
<path d="M145.72 106.507V103.549L144.63 116.611V119.569L145.72 106.507Z" fill="#00B2A7"/>
<path d="M144.63 119.569V116.611L145.72 103.549V106.507L144.63 119.569Z" fill="#00AD99"/>
<path d="M107.671 124.203C94.4996 123.089 82.4134 117.764 76.4626 110L76.6897 107.287L81.3202 106.212C87.3787 114.111 102.194 119.11 116.555 118.093C125.054 117.496 132.386 114.86 136.674 110.87L141.062 112.71L140.835 115.423C135.462 120.422 126.99 123.566 116.978 124.273C113.861 124.494 110.731 124.463 107.667 124.203" fill="#00B2A7"/>
<path d="M140.839 115.423L141.062 112.713L140.839 115.423Z" fill="#00AA93"/>
<path d="M112.794 124.42C111.074 124.42 109.361 124.347 107.667 124.203C94.4957 123.089 82.4095 117.764 76.4587 110L76.6858 107.287L81.3163 106.212C86.8513 113.428 99.6997 118.225 112.829 118.225C114.068 118.225 115.312 118.183 116.551 118.093C125.05 117.496 132.383 114.86 136.67 110.87L141.058 112.71L140.835 115.423C135.462 120.422 126.99 123.566 116.978 124.273C115.581 124.37 114.184 124.42 112.791 124.42" fill="#00AE9D"/>
<path d="M145.72 103.549L133.33 104.263L136.898 108.16C132.61 112.151 125.273 114.782 116.778 115.384C102.417 116.401 87.6021 111.401 81.5436 103.502L76.686 107.291C82.6368 115.054 94.723 120.38 107.895 121.494C110.962 121.754 114.088 121.785 117.206 121.563C127.213 120.857 135.685 117.713 141.062 112.713L144.631 116.614L145.72 103.553V103.549Z" fill="#00B2A7"/>
<path d="M74.9808 47.6696L74.9346 36.8517L76.9554 35.66C77.7213 35.2097 78.2217 34.9691 78.4527 34.938C78.8106 34.8876 79.1109 35.0661 79.3534 35.4659C79.5959 35.8657 79.719 36.4984 79.7229 37.3601C79.7229 38.0239 79.6574 38.6255 79.5227 39.1573C79.3842 39.693 79.2109 40.151 78.9992 40.5353C78.7875 40.9196 78.5681 41.2184 78.3487 41.4319C78.0485 41.7114 77.6136 42.0219 77.0439 42.3596L76.224 42.8448L76.2433 46.9244L74.9846 47.6696H74.9808ZM76.2009 37.9385L76.2125 41.0088L76.9015 40.6013C77.398 40.3102 77.729 40.0578 77.8984 39.8444C78.0639 39.6309 78.1948 39.3786 78.291 39.0797C78.3834 38.7808 78.4296 38.4742 78.4296 38.1559C78.4296 37.7638 78.3603 37.4766 78.2256 37.298C78.0908 37.1195 77.9215 37.0613 77.7175 37.1156C77.5674 37.1544 77.2633 37.3097 76.8091 37.5775L76.2009 37.9385Z" fill="#25434C"/>
<path d="M80.7583 44.262L80.7122 33.444L81.9708 32.6987L82.017 43.5167L80.7583 44.262Z" fill="#25434C"/>
<path d="M82.5828 43.1866L84.6921 36.2851L82.7367 32.2522L84.2109 31.3827L85.4773 34.1192L86.6898 29.9193L88.1486 29.0576L86.2317 35.4584L88.3872 39.763L86.8668 40.6597L85.4657 37.733L84.0955 42.2938L82.5828 43.1866Z" fill="#25434C"/>
<path d="M89.0301 39.3788L88.9839 28.5608L93.6105 25.832L93.6182 27.6603L90.2502 29.6476L90.2618 32.0465L93.395 30.1988L93.4027 32.0232L90.2695 33.8708L90.281 36.8169L93.7683 34.7597L93.776 36.584L89.0301 39.3827V39.3788Z" fill="#25434C"/>
<path d="M94.8768 35.9281L94.8306 25.1994L96.0892 24.4541L96.1277 33.3623L99.2609 31.5147L99.2686 33.3391L94.8768 35.932V35.9281Z" fill="#25434C"/>
<path d="M130.781 36.2581L130.87 26.8491L136.84 30.2727L136.824 31.8641L132.483 29.3722L132.463 31.4566L136.505 33.7739L136.489 35.3576L132.448 33.0403L132.425 35.6021L136.921 38.1834L136.905 39.767L130.781 36.2542V36.2581Z" fill="#00B2A7"/>
<path d="M138.26 40.5471L138.349 31.1382L140.781 32.5317L142.182 39.7864L143.687 34.1969L146.124 35.5942L146.035 45.0032L144.526 44.1376L144.596 36.7315L142.929 43.2216L141.362 42.3249L139.842 34.0067L139.773 41.4127L138.264 40.5471H138.26Z" fill="#00B2A7"/>
</g>
<defs>
<clipPath id="clip0_343_9">
<rect width="225" height="158" rx="8" fill="white"/>
</clipPath>
</defs>
</svg>
